<svg xmlns="http://www.w3.org/2000/svg" xmlns:xlink="http://www.w3.org/1999/xlink" id="visual" viewBox="0 0 960 540" width="960" height="540" version="1.1"><rect x="0" y="0" width="960" height="540" fill="#ffffff"/><path d="M0 101L26.7 96.2C53.3 91.3 106.7 81.7 160 82C213.3 82.3 266.7 92.7 320 95.7C373.3 98.7 426.7 94.3 480 90C533.3 85.7 586.7 81.3 640 82C693.3 82.7 746.7 88.3 800 85.5C853.3 82.7 906.7 71.3 933.3 65.7L960 60L960 0L933.3 0C906.7 0 853.3 0 800 0C746.7 0 693.3 0 640 0C586.7 0 533.3 0 480 0C426.7 0 373.3 0 320 0C266.7 0 213.3 0 160 0C106.7 0 53.3 0 26.7 0L0 0Z" fill="#0e49ff" stroke-linecap="round" stroke-linejoin="miter"/></svg>