<svg xmlns="http://www.w3.org/2000/svg" width="184" height="184" viewBox="0 0 184 184" fill="none">
<path d="M13.9648 162.914L164.965 18.9145" stroke="#FF5A5F" stroke-width="3" stroke-linecap="round"/>
<path d="M130.5 98.8125C111.919 98.8125 96.8125 113.919 96.8125 132.5C96.8125 151.081 111.919 166.188 130.5 166.188C149.081 166.188 164.188 151.081 164.188 132.5C164.188 113.919 149.081 98.8125 130.5 98.8125Z" fill="#FF5A5F"/>
<path d="M130.501 141.371C128.292 138.593 126.993 136.158 126.56 134.074C126.127 132.381 126.3 131.036 127.036 130.037C127.816 128.865 128.985 128.301 130.501 128.301C132.016 128.301 133.186 128.865 133.965 130.037C134.702 131.036 134.875 132.381 134.442 134.074C133.965 136.201 132.666 138.632 130.501 141.371ZM142.592 147.796C138.911 149.402 135.269 146.841 132.151 143.368C137.309 136.896 138.261 131.86 136.048 128.6C134.749 126.734 132.887 125.822 130.501 125.822C125.694 125.822 123.048 129.903 124.087 134.638C124.694 137.2 126.296 140.112 128.851 143.368C126.934 145.497 124.42 147.911 121.402 148.186C117.028 148.837 113.603 144.583 115.162 140.195L126.253 117.18C127.199 115.449 128.367 113.967 130.496 113.967C132.055 113.967 133.268 114.879 133.788 115.617L145.831 140.195C147.011 143.165 145.515 146.53 142.592 147.796ZM148.178 139.327L137.867 117.831C135.918 113.837 134.533 111.445 130.501 111.445C126.517 111.445 124.823 114.223 123.091 117.831L112.823 139.327C110.615 145.408 115.162 150.747 120.666 150.747C121.013 150.747 121.357 150.704 121.705 150.704C124.564 150.357 127.513 148.534 130.501 145.274C133.489 148.529 136.438 150.357 139.296 150.704C139.645 150.704 139.989 150.747 140.336 150.747C145.84 150.752 150.387 145.408 148.178 139.327Z" fill="white"/>
<circle cx="51.5" cy="53.5" r="33.5" fill="#FF5A5F"/>
<mask id="path-5-inside-1_59_4" fill="white">
<path d="M43.7446 48.4721C43.7446 47.9198 44.1923 47.4721 44.7446 47.4721H58.4528C59.0051 47.4721 59.4528 47.9198 59.4528 48.4721V60.2167C59.4528 60.769 59.0051 61.2167 58.4528 61.2167H44.7446C44.1923 61.2167 43.7446 60.769 43.7446 60.2167V48.4721Z"/>
</mask>
<path d="M43.7446 47.4721H59.4528H43.7446ZM61.4528 60.2167C61.4528 61.8736 60.1096 63.2167 58.4528 63.2167H44.7446C43.0878 63.2167 41.7446 61.8736 41.7446 60.2167L45.7446 59.2167H57.4528L61.4528 60.2167ZM44.7446 63.2167C43.0878 63.2167 41.7446 61.8736 41.7446 60.2167V50.4721C41.7446 48.8152 43.0878 47.4721 44.7446 47.4721H45.7446C45.7446 47.4721 45.7446 47.9198 45.7446 48.4721V59.2167L44.7446 63.2167ZM58.4528 47.4721C60.1096 47.4721 61.4528 48.8152 61.4528 50.4721V60.2167C61.4528 61.8736 60.1096 63.2167 58.4528 63.2167L57.4528 59.2167V48.4721C57.4528 47.9198 57.4528 47.4721 57.4528 47.4721H58.4528Z" fill="white" mask="url(#path-5-inside-1_59_4)"/>
<path d="M51.926 41.2543L41.3939 50.1739" stroke="white" stroke-width="2" stroke-linecap="round"/>
<path d="M62.9523 49.8296C63.3739 50.1863 63.4264 50.8173 63.0696 51.2389C62.7128 51.6605 62.0819 51.713 61.6603 51.3562L62.9523 49.8296ZM51.9174 40.4909L62.9523 49.8296L61.6603 51.3562L50.6254 42.0176L51.9174 40.4909Z" fill="white"/>
<path fill-rule="evenodd" clip-rule="evenodd" d="M51.5987 41.6684C47.3295 36.693 39.9501 35.1594 34.601 39.7153C29.2519 44.2713 28.4988 51.8885 32.6995 57.2769C36.1921 61.7568 46.7618 71.2056 50.226 74.2639C50.6135 74.606 50.8073 74.7771 51.0334 74.8442C51.2306 74.9028 51.4465 74.9028 51.6439 74.8442C51.87 74.7771 52.0636 74.606 52.4513 74.2639C55.9155 71.2056 66.4851 61.7568 69.9778 57.2769C74.1785 51.8885 73.5172 44.2233 68.0762 39.7153C62.6351 35.2073 55.8679 36.693 51.5987 41.6684Z" stroke="white" stroke-width="2" stroke-linecap="round" stroke-linejoin="round"/>
<rect x="48" y="50" width="3" height="3" rx="1" fill="white"/>
<rect x="52" y="50" width="3" height="3" rx="1" fill="white"/>
<rect x="52" y="54" width="3" height="3" rx="1" fill="white"/>
<rect x="48" y="54" width="3" height="3" rx="1" fill="white"/>
</svg>