<svg xmlns="http://www.w3.org/2000/svg" width="184" height="184" viewBox="0 0 184 184" fill="none">
<mask id="path-1-inside-1_59_4" fill="white">
<path d="M36 39C36 38.4477 36.4477 38 37 38H59C59.5523 38 60 38.4477 60 39V58C60 58.5523 59.5523 59 59 59H37C36.4477 59 36 58.5523 36 58V39Z"/>
</mask>
<path d="M36 38H60H36ZM62 58C62 59.6569 60.6569 61 59 61H37C35.3431 61 34 59.6569 34 58L38 57H58L62 58ZM37 61C35.3431 61 34 59.6569 34 58V41C34 39.3431 35.3431 38 37 38H38C38 38 38 38.4477 38 39V57L37 61ZM59 38C60.6569 38 62 39.3431 62 41V58C62 59.6569 60.6569 61 59 61L58 57V39C58 38.4477 58 38 58 38H59Z" fill="#F27984" mask="url(#path-1-inside-1_59_4)"/>
<rect x="43" y="41" width="4" height="4" rx="1" fill="#F27984"/>
<rect x="49" y="41" width="4" height="4" rx="1" fill="#F27984"/>
<rect x="49" y="47" width="4" height="4" rx="1" fill="#F27984"/>
<rect x="43" y="47" width="4" height="4" rx="1" fill="#F27984"/>
<path d="M48.5 28.5L32.4084 42.128" stroke="#F27984" stroke-width="2" stroke-linecap="round"/>
<path d="M65.0058 42.0049C65.4274 42.3617 65.4799 42.9926 65.1232 43.4142C64.7664 43.8358 64.1354 43.8883 63.7138 43.5316L65.0058 42.0049ZM48.146 27.7367L65.0058 42.0049L63.7138 43.5316L46.854 29.2633L48.146 27.7367Z" fill="#F27984"/>
<path fill-rule="evenodd" clip-rule="evenodd" d="M48 29.1327C41.4772 21.531 30.2024 19.1878 22.0297 26.1487C13.857 33.1095 12.7064 44.7477 19.1245 52.9804C24.4607 59.8251 40.6099 74.2617 45.9028 78.9343C46.4947 79.457 46.7909 79.7184 47.1363 79.821C47.4376 79.9105 47.7675 79.9105 48.0691 79.821C48.4145 79.7184 48.7103 79.457 49.3026 78.9343C54.5955 74.2617 70.7445 59.8251 76.0809 52.9804C82.4989 44.7477 81.4887 33.0363 73.1755 26.1487C64.8622 19.261 54.5228 21.531 48 29.1327Z" stroke="#F27984" stroke-width="2" stroke-linecap="round" stroke-linejoin="round"/>
<path d="M13.9648 162.914L164.965 18.9145" stroke="#FF5A5F" stroke-width="3" stroke-linecap="round"/>
<path d="M130.5 98.8125C111.919 98.8125 96.8125 113.919 96.8125 132.5C96.8125 151.081 111.919 166.188 130.5 166.188C149.081 166.188 164.188 151.081 164.188 132.5C164.188 113.919 149.081 98.8125 130.5 98.8125Z" fill="#FF5A5F"/>
<path d="M130.501 141.371C128.292 138.593 126.993 136.158 126.56 134.074C126.127 132.381 126.3 131.036 127.036 130.037C127.816 128.865 128.985 128.301 130.501 128.301C132.016 128.301 133.186 128.865 133.965 130.037C134.702 131.036 134.875 132.381 134.442 134.074C133.965 136.201 132.666 138.632 130.501 141.371ZM142.592 147.796C138.911 149.402 135.269 146.841 132.151 143.368C137.309 136.896 138.261 131.86 136.048 128.6C134.749 126.734 132.887 125.822 130.501 125.822C125.694 125.822 123.048 129.903 124.087 134.638C124.694 137.2 126.296 140.112 128.851 143.368C126.934 145.497 124.42 147.911 121.402 148.186C117.028 148.837 113.603 144.583 115.162 140.195L126.253 117.18C127.199 115.449 128.367 113.967 130.496 113.967C132.055 113.967 133.268 114.879 133.788 115.617L145.831 140.195C147.011 143.165 145.515 146.53 142.592 147.796ZM148.178 139.327L137.867 117.831C135.918 113.837 134.533 111.445 130.501 111.445C126.517 111.445 124.823 114.223 123.091 117.831L112.823 139.327C110.615 145.408 115.162 150.747 120.666 150.747C121.013 150.747 121.357 150.704 121.705 150.704C124.564 150.357 127.513 148.534 130.501 145.274C133.489 148.529 136.438 150.357 139.296 150.704C139.645 150.704 139.989 150.747 140.336 150.747C145.84 150.752 150.387 145.408 148.178 139.327Z" fill="white"/>
</svg>