<svg xmlns="http://www.w3.org/2000/svg" width="48" height="48" viewBox="0 0 48 48" fill="none">
<path fill-rule="evenodd" clip-rule="evenodd" d="M9.94601 8.59492C7.92853 7.15983 5 8.48359 5 10.8306V19.1694C5 21.5164 7.92853 22.8402 9.94601 21.4051L15 17.81V19.1694C15 21.5164 17.9285 22.8402 19.946 21.4051L25.8074 17.2357C27.3975 16.1046 27.3975 13.8954 25.8074 12.7643L19.946 8.59492C17.9285 7.15983 15 8.48359 15 10.8306V12.19L9.94601 8.59492ZM7.0462 10.8306C7.0462 10.0483 8.02237 9.60703 8.69487 10.0854L14.5563 14.2548C15.0863 14.6318 15.0863 15.3682 14.5563 15.7452L8.69487 19.9146C8.02237 20.393 7.0462 19.9517 7.0462 19.1694V10.8306ZM17.0462 10.8306C17.0462 10.0483 18.0224 9.60703 18.6949 10.0854L24.5563 14.2548C25.0863 14.6318 25.0863 15.3682 24.5563 15.7452L18.6949 19.9146C18.0224 20.393 17.0462 19.9517 17.0462 19.1694V10.8306Z" fill="#F27984"/>
<path d="M30.7201 21.0006C28.5554 21.0006 27.0122 21.6562 25.9034 22.7613C24.8225 23.8386 24.2266 25.2742 23.7979 26.6926L23.1 29.0017H20.7524C20.3382 29.0017 20.0024 29.3375 20.0024 29.7517C20.0024 31.0958 20.7658 32.2357 21.8748 32.8523L21.286 34.2844C20.8733 35.2882 21.351 36.4379 22.355 36.8518C22.5925 36.9497 22.8468 37 23.1036 37H25.2977C26.0596 37 26.7524 36.5594 27.0763 35.8701L27.7827 34.3668C29.7527 34.6396 31.7511 34.6428 33.7219 34.3764L34.4237 35.8701C34.7476 36.5594 35.4404 37 36.2023 37H38.3745C38.6317 37 38.8863 36.9495 39.124 36.8514C40.1278 36.437 40.6049 35.2871 40.1917 34.2835L39.6633 33H42C43.0127 33 44.0002 32.2165 44.0002 31.114V30C44.0002 28.2943 42.5196 27.0029 40.8184 27.0029H37.8693L37.7752 26.692C37.3422 25.2608 36.7117 23.827 35.5966 22.7523C34.4579 21.6548 32.8869 21.0006 30.7201 21.0006ZM39.2299 31.5L38.3231 28.5029H40.8184C41.8033 28.5029 42.5002 29.2306 42.5002 30V31.114C42.5002 31.2491 42.3304 31.5 42 31.5H39.2299ZM38.1625 33.2947L38.8047 34.8546C38.9032 35.0939 38.789 35.3669 38.5516 35.4649C38.4954 35.4881 38.4353 35.5 38.3745 35.5H36.2023C36.0225 35.5 35.8583 35.3961 35.7813 35.2322L35.2556 34.1132C36.2376 33.9086 37.2089 33.6358 38.1625 33.2947ZM26.2512 34.0989L25.7187 35.2322C25.6417 35.3961 25.4775 35.5 25.2977 35.5H23.1036C23.043 35.5 22.9829 35.4881 22.9267 35.465C22.6893 35.3671 22.5749 35.0942 22.6733 34.8548L23.306 33.316C23.3805 33.325 23.4555 33.3319 23.531 33.3368C24.4244 33.6505 25.333 33.9046 26.2512 34.0989ZM22.6466 30.5017L22.3755 31.3987C22.0527 31.1646 21.8034 30.8534 21.6554 30.5017H22.6466ZM25.2337 27.1266C25.6413 25.778 26.1493 24.634 26.9623 23.8237C27.7476 23.041 28.8883 22.5006 30.7201 22.5006C32.5569 22.5006 33.7359 23.0422 34.5557 23.8323C35.3991 24.6452 35.9354 25.7907 36.3395 27.1264L37.7665 31.843C33.2585 33.4842 28.3162 33.4842 23.8083 31.8429L25.2337 27.1266Z" fill="#F27984"/>
<line x1="35.9558" y1="11.0597" x2="12.0597" y2="33.0442" stroke="#F27984" stroke-width="1.5" stroke-linecap="round"/>
</svg>