<svg id="visual" viewBox="0 0 900 600" width="900" height="600" xmlns="http://www.w3.org/2000/svg" xmlns:xlink="http://www.w3.org/1999/xlink" version="1.1"><rect x="0" y="0" width="900" height="600" fill="#ffffff"></rect><path d="M0 411L21.5 421.8C43 432.7 86 454.3 128.8 461.5C171.7 468.7 214.3 461.3 257.2 451.3C300 441.3 343 428.7 385.8 440C428.7 451.3 471.3 486.7 514.2 499C557 511.3 600 500.7 642.8 490.5C685.7 480.3 728.3 470.7 771.2 464.8C814 459 857 457 878.5 456L900 455L900 601L878.5 601C857 601 814 601 771.2 601C728.3 601 685.7 601 642.8 601C600 601 557 601 514.2 601C471.3 601 428.7 601 385.8 601C343 601 300 601 257.2 601C214.3 601 171.7 601 128.8 601C86 601 43 601 21.5 601L0 601Z" fill="#ffff2c" stroke-linecap="round" stroke-linejoin="miter"></path></svg>