<svg xmlns="http://www.w3.org/2000/svg" width="69" height="64" viewBox="0 0 69 64" fill="none">
<path d="M46.7829 20.3636L45.7829 20.3636L45.7829 20.3645L46.7829 20.3636ZM46.8003 39.781L47.8003 39.781L47.8003 39.7801L46.8003 39.781ZM32.5819 25.0415L32.5436 26.0408C32.5563 26.0413 32.5691 26.0415 32.5819 26.0415V25.0415ZM30.5819 25.0415V26.0415C30.597 26.0415 30.6121 26.0412 30.6272 26.0405L30.5819 25.0415ZM35.9999 28.7446L34.9999 28.7446L34.9999 28.7446L35.9999 28.7446ZM36 30.5L37 30.5L37 30.4999L36 30.5ZM33 28.7446L32 28.7446L32 28.7446L33 28.7446ZM33 30.5L34 30.5L34 30.5L33 30.5ZM30.5819 31L30.1316 31.8928C30.2712 31.9633 30.4255 32 30.5819 32V31ZM34.6622 9.22633L35.3208 8.4738L34.6621 7.89733L34.0035 8.47396L34.6622 9.22633ZM18.2327 22.2824C17.8172 22.6462 17.7753 23.2779 18.1391 23.6935C18.5029 24.109 19.1347 24.1509 19.5502 23.7871L18.2327 22.2824ZM50.5518 24.4606C50.9674 24.8243 51.5991 24.7822 51.9629 24.3666C52.3266 23.951 52.2845 23.3193 51.8689 22.9556L50.5518 24.4606ZM35.0963 9.1387L34.325 9.77516C34.515 10.0054 34.7978 10.1387 35.0963 10.1387C35.3948 10.1387 35.6777 10.0054 35.8676 9.77516L35.0963 9.1387ZM8.82749 6L9.49051 6.7486L9.49051 6.7486L8.82749 6ZM5.88884 34.2223L5.08872 34.8221L5.08873 34.8221L5.88884 34.2223ZM32.975 61.5212L33.6513 60.7847L33.6512 60.7846L32.975 61.5212ZM34.2227 62.4539L34.518 61.4985L34.5178 61.4984L34.2227 62.4539ZM35.1662 62.4539L35.4612 63.4094L35.4612 63.4093L35.1662 62.4539ZM36.4139 61.5212L37.0901 62.258L37.0902 62.2579L36.4139 61.5212ZM63.5 34.2223L64.3001 34.8221L64.3001 34.8221L63.5 34.2223ZM31.5 25L31.5384 24.0007C31.5105 23.9996 31.4826 23.9997 31.4548 24.001L31.5 25ZM23.5244 20.8636C23.5244 21.0108 23.4795 21.0774 23.5108 21.0079C23.5308 20.9634 23.5712 20.8883 23.6389 20.7837C23.7733 20.5762 23.9704 20.3217 24.193 20.0719C24.4165 19.8213 24.6416 19.6024 24.824 19.4556C24.9163 19.3813 24.9774 19.342 25.0066 19.3261C25.062 19.2958 24.9687 19.3636 24.7829 19.3636V17.3636C24.459 17.3636 24.1917 17.4923 24.0481 17.5707C23.8782 17.6635 23.7154 17.7806 23.5701 17.8975C23.2772 18.1332 22.9722 18.4358 22.7001 18.7411C22.4271 19.0473 22.1631 19.3833 21.9603 19.6963C21.8595 19.852 21.7623 20.0196 21.6868 20.1874C21.6226 20.3301 21.5244 20.5784 21.5244 20.8636H23.5244ZM24.7829 19.3636H44.7829V17.3636H24.7829V19.3636ZM44.7829 19.3636C44.6541 19.3636 44.5906 19.3272 44.6248 19.3422C44.6456 19.3514 44.6936 19.3764 44.7681 19.4267C44.9165 19.5271 45.1005 19.6812 45.2829 19.8636C45.4654 20.0461 45.6194 20.2301 45.7198 20.3784C45.7702 20.4529 45.7951 20.5009 45.8043 20.5218C45.8193 20.556 45.7829 20.4925 45.7829 20.3636H47.7829C47.7829 20.0967 47.7013 19.8671 47.635 19.7164C47.5628 19.5524 47.4704 19.3967 47.3764 19.2578C47.188 18.9794 46.9456 18.6979 46.6971 18.4494C46.4486 18.2009 46.1671 17.9585 45.8887 17.7702C45.7498 17.6762 45.5941 17.5837 45.4301 17.5115C45.2794 17.4453 45.0499 17.3636 44.7829 17.3636V19.3636ZM45.7829 20.3645L45.8003 39.7819L47.8003 39.7801L47.7829 20.3627L45.7829 20.3645ZM45.8003 39.781V41.781C46.9049 41.781 47.8003 40.8856 47.8003 39.781H45.8003ZM45.8003 39.781H23.5244V41.781H45.8003V39.781ZM23.5244 39.781H23.5244H21.5244C21.5244 40.8856 22.4198 41.781 23.5244 41.781V39.781ZM23.5244 39.781V20.8636H21.5244V39.781H23.5244ZM31 22.5C31 22.3579 31.0027 22.2968 31.0063 22.2661C31.0102 22.2334 31.0061 22.329 30.9268 22.4531C30.8836 22.5208 30.8261 22.5845 30.7565 22.6369C30.6889 22.6878 30.6262 22.7158 30.5833 22.7306C30.5115 22.7553 30.4895 22.7446 30.5819 22.7446V20.7446C30.2618 20.7446 29.6179 20.7863 29.2409 21.3772C29.0852 21.6212 29.0391 21.8711 29.0201 22.0317C29.0009 22.1945 29 22.3659 29 22.5H31ZM30.5819 22.7446H32.5819V20.7446H30.5819V22.7446ZM32.5819 22.7446C32.6234 22.7446 32.6342 22.7467 32.6248 22.7454C32.617 22.7444 32.5637 22.737 32.489 22.7052C32.4074 22.6705 32.3024 22.6075 32.2077 22.5002C32.113 22.3932 32.0637 22.2819 32.0392 22.1991C32.017 22.1239 32.0147 22.071 32.0144 22.0656C32.0142 22.0594 32.0148 22.0675 32.0132 22.1081C32.0107 22.1679 32 22.335 32 22.5H34C34 22.3888 34.006 22.3234 34.0115 22.1898C34.0148 22.1097 34.0283 21.8724 33.9569 21.6313C33.8563 21.2915 33.6173 21.0117 33.2715 20.8647C33.0127 20.7546 32.7484 20.7446 32.5819 20.7446V22.7446ZM32 22.5V24.7446H34V22.5H32ZM32 24.7446C32 24.9264 32.0117 25.0525 32.015 25.0974C32.0159 25.1087 32.015 25.0995 32.0146 25.083C32.0143 25.0724 32.0124 25.0109 32.0249 24.9296C32.0362 24.8559 32.0739 24.6602 32.2303 24.4665C32.4148 24.238 32.6582 24.1393 32.8528 24.1108C33.0107 24.0876 33.1329 24.1103 33.1619 24.1156C33.1845 24.1197 33.2015 24.1238 33.2094 24.1257C33.2139 24.1268 33.2172 24.1277 33.2191 24.1282C33.2201 24.1285 33.2209 24.1287 33.2213 24.1288C33.2216 24.1289 33.2217 24.1289 33.2219 24.1289C33.2218 24.1289 33.222 24.129 33.222 24.129C33.2219 24.129 33.2221 24.129 33.222 24.129C33.2253 24.1299 33.166 24.1127 33.1092 24.0994C32.9743 24.0676 32.8023 24.0415 32.5819 24.0415V26.0415C32.6121 26.0415 32.6306 26.0433 32.6393 26.0443C32.6474 26.0453 32.6507 26.0461 32.6513 26.0462C32.6596 26.0482 32.6503 26.046 32.6918 26.0574C32.7037 26.0607 32.7478 26.073 32.8007 26.0827C32.8433 26.0905 32.9766 26.114 33.1433 26.0896C33.3468 26.0597 33.5969 25.9576 33.7863 25.723C33.9477 25.5231 33.9886 25.3186 34.0018 25.2329C34.0161 25.1396 34.0147 25.0629 34.0139 25.0334C34.0131 24.998 34.0108 24.9661 34.0096 24.9505C34.005 24.888 34 24.8389 34 24.7446H32ZM30.5819 24.0415C30.3621 24.0415 30.191 24.0676 30.0711 24.0904C30.0436 24.0957 30.0189 24.1007 30.0026 24.104C29.9834 24.1079 29.9779 24.109 29.9751 24.1095C29.9516 24.1138 30.0356 24.0946 30.1518 24.1025C30.304 24.1128 30.554 24.1727 30.7623 24.3912C30.9375 24.575 30.9814 24.769 30.9914 24.8162C31.0035 24.8733 31.0027 24.9053 31.0015 24.8747C31.0005 24.8513 31 24.813 31 24.7446H29C29 24.8418 28.9968 25.0517 29.0351 25.2317C29.0565 25.3327 29.1166 25.5634 29.3147 25.7713C29.5459 26.0138 29.8254 26.0849 30.0159 26.0979C30.1703 26.1084 30.3011 26.0831 30.3351 26.0769C30.361 26.0721 30.3868 26.0668 30.4018 26.0638C30.4198 26.0601 30.4322 26.0576 30.4449 26.0552C30.4859 26.0474 30.5257 26.0415 30.5819 26.0415V24.0415ZM31 24.7446V22.5H29V24.7446H31ZM36.9999 22.7446C36.9999 22.6722 36.999 22.5966 36.9987 22.548C36.9984 22.4919 36.9987 22.4581 36.9996 22.4342C37.0006 22.4097 37.0016 22.4153 36.9977 22.4375C36.9938 22.4603 36.9814 22.5203 36.9451 22.5963C36.9059 22.6783 36.8452 22.7656 36.7586 22.8416C36.6743 22.9155 36.5913 22.9562 36.5328 22.9776C36.478 22.9977 36.4425 23.0018 36.4422 23.0018C36.441 23.0019 36.4576 23 36.4999 23V21C36.3269 21 36.085 21.0117 35.8448 21.0997C35.5513 21.2072 35.2919 21.4171 35.1405 21.734C35.0197 21.9869 35.0058 22.2365 35.0011 22.3563C34.9964 22.4767 34.9999 22.6498 34.9999 22.7446H36.9999ZM36.4999 23H38.5819V21H36.4999V23ZM38.5819 23C38.6554 23 38.725 22.9991 38.7656 22.9988C38.8166 22.9984 38.8267 22.999 38.823 22.9988C38.8189 22.9985 38.7995 22.9974 38.7707 22.9929C38.7425 22.9886 38.6914 22.979 38.6283 22.957C38.4844 22.907 38.2912 22.7955 38.1534 22.5782C38.0355 22.3921 38.0198 22.2213 38.0163 22.1759C38.0126 22.1276 38.0158 22.0984 38.0138 22.1346C38.0113 22.1813 38 22.3261 38 22.5H40C40 22.3977 40.0055 22.3419 40.0108 22.2431C40.0128 22.2065 40.0178 22.1184 40.0104 22.0222C40.0032 21.929 39.9784 21.7216 39.8427 21.5075C39.5257 21.0074 38.9755 21.0042 38.9375 21.0021C38.8355 20.9962 38.6616 21 38.5819 21V23ZM38 22.5V24.7446H40V22.5H38ZM38 24.7446C38 24.8187 38.0009 24.8852 38.0012 24.922C38.0016 24.9737 38.0006 24.966 38.0023 24.9429C38.0033 24.9291 38.0071 24.8819 38.0219 24.8191C38.0358 24.7601 38.0714 24.634 38.1659 24.4978C38.2741 24.342 38.4349 24.209 38.638 24.1363C38.8191 24.0715 38.9733 24.0766 39.0494 24.0836C39.126 24.0907 39.1816 24.1059 39.1944 24.1093C39.2102 24.1136 39.2199 24.117 39.207 24.1128C39.1902 24.1074 39.1335 24.0886 39.0663 24.0708C38.9196 24.0321 38.7334 24 38.5 24V26C38.5237 26 38.538 26.0015 38.5444 26.0024C38.5505 26.0032 38.5536 26.004 38.5559 26.0046C38.5614 26.0061 38.5637 26.0068 38.5947 26.0168C38.6057 26.0203 38.6365 26.0303 38.6709 26.0396C38.7024 26.0481 38.7742 26.0667 38.8648 26.0751C38.9549 26.0835 39.1208 26.0877 39.3119 26.0193C39.5251 25.9431 39.6941 25.8037 39.8088 25.6384C39.9859 25.3833 39.995 25.1146 39.9967 25.0921C40.0041 24.9937 40 24.8108 40 24.7446H38ZM36.5 24C36.2666 24 36.0803 24.0321 35.9337 24.0708C35.8664 24.0886 35.8097 24.1074 35.7929 24.1128C35.78 24.1169 35.7898 24.1136 35.8055 24.1093C35.8184 24.1058 35.8739 24.0907 35.9506 24.0836C36.0266 24.0766 36.1807 24.0715 36.3617 24.1362C36.5648 24.2089 36.7256 24.3418 36.8338 24.4976C36.9284 24.6338 36.964 24.7599 36.9779 24.8189C36.9928 24.8817 36.9965 24.929 36.9976 24.9427C36.9993 24.9659 36.9983 24.9737 36.9987 24.9219C36.999 24.8852 36.9999 24.8186 36.9999 24.7446H34.9999C34.9999 24.8109 34.9958 24.9937 35.0032 25.0922C35.0049 25.1148 35.014 25.3835 35.1912 25.6386C35.3061 25.8039 35.4751 25.9432 35.6881 26.0194C35.8791 26.0877 36.045 26.0835 36.1351 26.0751C36.2257 26.0667 36.2974 26.0482 36.3289 26.0396C36.3633 26.0303 36.3942 26.0203 36.4052 26.0168C36.4362 26.0068 36.4385 26.0061 36.444 26.0046C36.4464 26.004 36.4495 26.0032 36.4555 26.0024C36.462 26.0015 36.4763 26 36.5 26V24ZM36.9999 24.7446V22.7446H34.9999V24.7446H36.9999ZM36.9999 28.7446C36.9999 28.6087 37.0021 28.5186 37.0087 28.4503C37.0155 28.3789 37.0228 28.3845 37.0049 28.4267C36.9809 28.4836 36.9177 28.5896 36.7904 28.6696C36.6703 28.7452 36.577 28.7446 36.5819 28.7446V26.7446C36.3108 26.7446 36.0066 26.7999 35.7256 26.9767C35.4374 27.1579 35.2632 27.4104 35.1627 27.6482C34.9931 28.0495 34.9999 28.5138 34.9999 28.7446H36.9999ZM36.5819 28.7446H38.5819V26.7446H36.5819V28.7446ZM38.5819 28.7446C38.5995 28.7446 38.4431 28.75 38.2664 28.6126C38.0759 28.4644 38.0266 28.2804 38.0167 28.2298C38.0105 28.198 38.0167 28.2047 38.0128 28.3222C38.0103 28.4001 37.9999 28.5863 37.9999 28.7446H39.9999C39.9999 28.6267 40.0064 28.5498 40.0117 28.3884C40.0158 28.2667 40.0211 28.0579 39.9794 27.8452C39.934 27.6136 39.8148 27.2831 39.4941 27.0337C39.1872 26.7951 38.8405 26.7446 38.5819 26.7446V28.7446ZM37.9999 28.7446V30.5H39.9999V28.7446H37.9999ZM37.9999 30.5C37.9999 30.6739 38.0112 30.8187 38.0138 30.8655C38.0157 30.9016 38.0125 30.8725 38.0162 30.8242C38.0197 30.7788 38.0354 30.608 38.1533 30.4218C38.2911 30.2045 38.4844 30.093 38.6283 30.0429C38.6914 30.021 38.7425 30.0114 38.7707 30.007C38.7995 30.0026 38.8189 30.0014 38.8231 30.0012C38.8267 30.001 38.8166 30.0015 38.7656 30.0012C38.725 30.0009 38.6554 30 38.5819 30V32C38.6616 32 38.8355 32.0037 38.9374 31.9979C38.9755 31.9957 39.5258 31.9926 39.8427 31.4923C39.9784 31.2782 40.0032 31.0708 40.0104 30.9776C40.0177 30.8815 40.0128 30.7934 40.0108 30.7568C40.0054 30.658 39.9999 30.6022 39.9999 30.5H37.9999ZM38.5819 30H36.5819V32H38.5819V30ZM36.5819 30C36.509 30 36.4364 30.0009 36.3918 30.0012C36.3389 30.0015 36.3157 30.0011 36.3043 30.0006C36.2907 30 36.3248 30.0002 36.3806 30.0132C36.441 30.0271 36.5539 30.0619 36.6745 30.1502C36.9524 30.3536 36.9968 30.6283 37.0012 30.6562C37.0043 30.676 37.0029 30.6772 37.0017 30.6433C37.0005 30.6114 37 30.5672 37 30.5H35C35 30.6206 34.9996 30.8021 35.0253 30.966C35.0525 31.1395 35.1388 31.5046 35.4932 31.764C35.792 31.9828 36.1186 31.9941 36.2117 31.9985C36.3218 32.0036 36.4934 32 36.5819 32V30ZM37 30.4999L36.9999 28.7445L34.9999 28.7446L35 30.5001L37 30.4999ZM31 28.7446C31 28.6087 31.0022 28.5185 31.0087 28.4503C31.0155 28.3788 31.0229 28.3844 31.005 28.4267C30.981 28.4835 30.9178 28.5895 30.7905 28.6696C30.6703 28.7452 30.577 28.7446 30.5819 28.7446V26.7446C30.3108 26.7446 30.0066 26.7999 29.7256 26.9767C29.4374 27.158 29.2632 27.4105 29.1627 27.6483C28.9932 28.0495 29 28.5138 29 28.7446H31ZM30.5819 28.7446H32.5819V26.7446H30.5819V28.7446ZM32.5819 28.7446C32.5995 28.7446 32.4431 28.75 32.2664 28.6126C32.0759 28.4645 32.0267 28.2804 32.0167 28.2298C32.0105 28.1981 32.0168 28.2047 32.0129 28.3223C32.0103 28.4001 32 28.5863 32 28.7446H34C34 28.6267 34.0064 28.5498 34.0118 28.3884C34.0158 28.2666 34.0211 28.0578 33.9794 27.8451C33.934 27.6135 33.8147 27.283 33.4941 27.0337C33.1872 26.7951 32.8405 26.7446 32.5819 26.7446V28.7446ZM32 28.7446L32 30.5L34 30.5L34 28.7446L32 28.7446ZM32 30.5C32 30.6739 32.0113 30.8186 32.0138 30.8654C32.0158 30.9015 32.0126 30.8723 32.0163 30.824C32.0198 30.7786 32.0355 30.6078 32.1535 30.4217C32.2912 30.2044 32.4845 30.093 32.6284 30.0429C32.6915 30.021 32.7425 30.0114 32.7707 30.007C32.7995 30.0026 32.819 30.0014 32.8231 30.0012C32.8267 30.001 32.8166 30.0015 32.7656 30.0012C32.725 30.0009 32.6554 30 32.5819 30V32C32.6616 32 32.8355 32.0037 32.9374 31.9979C32.9755 31.9957 33.5257 31.9925 33.8427 31.4925C33.9784 31.2784 34.0032 31.071 34.0104 30.9778C34.0178 30.8816 34.0129 30.7935 34.0109 30.7568C34.0055 30.658 34 30.6022 34 30.5H32ZM32.5819 30H30.5819V32H32.5819V30ZM31.0323 30.1071C30.7584 29.969 30.4719 29.9078 30.1854 29.9342C29.9163 29.9591 29.7136 30.0613 29.6896 30.0722C29.6798 30.0766 29.7024 30.0659 29.735 30.0542C29.7634 30.044 29.8559 30.0116 29.983 30.003C30.1254 29.9934 30.3336 30.0126 30.5437 30.1373C30.7478 30.2586 30.8583 30.4232 30.9134 30.5329C30.9653 30.6363 30.9844 30.7225 30.9911 30.7562C30.9988 30.7951 31.0008 30.8211 31.001 30.824C31.0013 30.8277 31 30.8093 31 30.7446H29C29 30.8179 29.001 30.903 29.0074 30.9833C29.0109 31.0269 29.0233 31.2257 29.126 31.4302C29.1886 31.5549 29.3079 31.7295 29.5222 31.8568C29.7425 31.9877 29.9625 32.009 30.1182 31.9985C30.2586 31.9889 30.3661 31.9526 30.4113 31.9364C30.4606 31.9187 30.5018 31.8999 30.5125 31.895C30.5707 31.8688 30.4819 31.9154 30.3693 31.9258C30.2395 31.9377 30.1524 31.9033 30.1316 31.8928L31.0323 30.1071ZM31 30.7446V28.7446H29V30.7446H31ZM34.0035 8.47396L18.2327 22.2824L19.5502 23.7871L35.321 9.97869L34.0035 8.47396ZM34.0037 9.97885L50.5518 24.4606L51.8689 22.9556L35.3208 8.4738L34.0037 9.97885ZM35.8676 8.50224C28.9974 0.176511 16.9514 -2.53103 8.16447 5.2514L9.49051 6.7486C17.2369 -0.112188 27.9996 2.10959 34.325 9.77516L35.8676 8.50224ZM8.16447 5.2514C-0.4924 12.9186 -1.71519 25.7465 5.08872 34.8221L6.68896 33.6224C0.509115 25.3793 1.614 13.7246 9.49051 6.7486L8.16447 5.2514ZM5.08873 34.8221C7.84071 38.4928 13.3291 44.1404 18.749 49.4433C24.1875 54.7644 29.6184 59.7973 32.2987 62.2579L33.6512 60.7846C30.9778 58.3304 25.5645 53.3135 20.1477 48.0137C14.7124 42.6957 9.33453 37.1512 6.68895 33.6224L5.08873 34.8221ZM32.2986 62.2578C32.5863 62.522 32.8448 62.7603 33.0771 62.9416C33.3206 63.1317 33.5922 63.3058 33.9277 63.4093L34.5178 61.4984C34.5038 61.4941 34.4509 61.4768 34.3076 61.3649C34.1531 61.2443 33.9624 61.0703 33.6513 60.7847L32.2986 62.2578ZM33.9274 63.4093C34.4246 63.5629 34.964 63.5628 35.4612 63.4094L34.8712 61.4984C34.7582 61.5332 34.6302 61.5331 34.518 61.4985L33.9274 63.4093ZM35.4612 63.4093C35.7968 63.3057 36.0683 63.1315 36.3117 62.9415C36.5439 62.7603 36.8024 62.522 37.0901 62.258L35.7378 60.7844C35.4264 61.0702 35.2357 61.2443 35.0811 61.365C34.9378 61.4769 34.885 61.4941 34.8711 61.4984L35.4612 63.4093ZM37.0902 62.2579C39.7705 59.7973 45.2014 54.7644 50.6398 49.4433C56.0597 44.1404 61.5481 38.4928 64.3001 34.8221L62.6999 33.6224C60.0542 37.1512 54.6764 42.6957 49.2411 48.0137C43.8244 53.3135 38.4111 58.3304 35.7377 60.7846L37.0902 62.2579ZM64.3001 34.8221C71.0956 25.7577 70.0359 12.8431 61.2139 5.2424L59.9085 6.7576C67.9039 13.6461 68.8881 25.3681 62.6999 33.6224L64.3001 34.8221ZM61.2139 5.2424C56.7971 1.43713 51.7889 0.128802 46.9976 0.865887C42.2269 1.59979 37.7541 4.34666 34.325 8.50224L35.8676 9.77516C39.0364 5.93509 43.0915 3.49031 47.3017 2.84263C51.4912 2.19813 55.9164 3.31828 59.9085 6.7576L61.2139 5.2424ZM38.5 24H37.5V26H38.5V24ZM37.5 24H36.5V26H37.5V24ZM32.6203 24.0423L31.5384 24.0007L31.4616 25.9992L32.5436 26.0408L32.6203 24.0423ZM31.4548 24.001L30.5367 24.0426L30.6272 26.0405L31.5452 25.999L31.4548 24.001Z" fill="#507EF5"/>
</svg>