<svg xmlns="http://www.w3.org/2000/svg" width="77" height="77" viewBox="0 0 77 77" fill="none">
<circle cx="39.5" cy="38.5" r="33.5" fill="#FF5A5F"/>
<mask id="path-2-inside-1_61_3" fill="white">
<path d="M31.7446 33.4721C31.7446 32.9198 32.1923 32.4721 32.7446 32.4721H46.4528C47.0051 32.4721 47.4528 32.9198 47.4528 33.4721V45.2167C47.4528 45.769 47.0051 46.2167 46.4528 46.2167H32.7446C32.1923 46.2167 31.7446 45.769 31.7446 45.2167V33.4721Z"/>
</mask>
<path d="M31.7446 32.4721H47.4528H31.7446ZM49.4528 45.2167C49.4528 46.8736 48.1096 48.2167 46.4528 48.2167H32.7446C31.0878 48.2167 29.7446 46.8736 29.7446 45.2167L33.7446 44.2167H45.4528L49.4528 45.2167ZM32.7446 48.2167C31.0878 48.2167 29.7446 46.8736 29.7446 45.2167V35.4721C29.7446 33.8153 31.0878 32.4721 32.7446 32.4721H33.7446C33.7446 32.4721 33.7446 32.9198 33.7446 33.4721V44.2167L32.7446 48.2167ZM46.4528 32.4721C48.1096 32.4721 49.4528 33.8153 49.4528 35.4721V45.2167C49.4528 46.8736 48.1096 48.2167 46.4528 48.2167L45.4528 44.2167V33.4721C45.4528 32.9198 45.4528 32.4721 45.4528 32.4721H46.4528Z" fill="white" mask="url(#path-2-inside-1_61_3)"/>
<path d="M39.9259 26.2543L29.3939 35.1739" stroke="white" stroke-width="2" stroke-linecap="round"/>
<path d="M50.9523 34.8296C51.3739 35.1864 51.4264 35.8173 51.0697 36.2389C50.7129 36.6605 50.0819 36.713 49.6603 36.3563L50.9523 34.8296ZM39.9175 25.491L50.9523 34.8296L49.6603 36.3563L38.6255 27.0176L39.9175 25.491Z" fill="white"/>
<path fill-rule="evenodd" clip-rule="evenodd" d="M39.5987 26.6684C35.3295 21.693 27.9501 20.1594 22.601 24.7153C17.2519 29.2713 16.4988 36.8885 20.6995 42.2769C24.1921 46.7568 34.7618 56.2056 38.226 59.2639C38.6135 59.606 38.8073 59.7771 39.0334 59.8442C39.2306 59.9028 39.4465 59.9028 39.6439 59.8442C39.87 59.7771 40.0636 59.606 40.4513 59.2639C43.9155 56.2056 54.4851 46.7568 57.9778 42.2769C62.1785 36.8885 61.5172 29.2233 56.0762 24.7153C50.6351 20.2073 43.8679 21.693 39.5987 26.6684Z" stroke="white" stroke-width="2" stroke-linecap="round" stroke-linejoin="round"/>
<rect x="36" y="35" width="3" height="3" rx="1" fill="white"/>
<rect x="40" y="35" width="3" height="3" rx="1" fill="white"/>
<rect x="40" y="39" width="3" height="3" rx="1" fill="white"/>
<rect x="36" y="39" width="3" height="3" rx="1" fill="white"/>
</svg>