<svg xmlns="http://www.w3.org/2000/svg" width="67" height="60" viewBox="0 0 67 60" fill="none">
<g clip-path="url(#clip0_85_16)">
<rect x="30" y="25" width="3" height="3" rx="1" fill="white"/>
<rect x="34" y="25" width="3" height="3" rx="1" fill="white"/>
<rect x="34" y="29" width="3" height="3" rx="1" fill="white"/>
<rect x="30" y="29" width="3" height="3" rx="1" fill="white"/>
<mask id="path-5-inside-1_85_16" fill="white">
<path d="M25.421 24.2178C25.421 23.6655 25.8687 23.2178 26.421 23.2178H40.1292C40.6815 23.2178 41.1292 23.6655 41.1292 24.2178V35.9624C41.1292 36.5147 40.6815 36.9624 40.1292 36.9624H26.421C25.8687 36.9624 25.421 36.5147 25.421 35.9624V24.2178Z"/>
</mask>
<path d="M25.421 23.2178H41.1292H25.421ZM43.1292 35.9624C43.1292 37.6193 41.786 38.9624 40.1292 38.9624H26.421C24.7642 38.9624 23.421 37.6193 23.421 35.9624L27.421 34.9624H39.1292L43.1292 35.9624ZM26.421 38.9624C24.7642 38.9624 23.421 37.6193 23.421 35.9624V26.2178C23.421 24.561 24.7642 23.2178 26.421 23.2178H27.421C27.421 23.2178 27.421 23.6655 27.421 24.2178V34.9624L26.421 38.9624ZM40.1292 23.2178C41.786 23.2178 43.1292 24.561 43.1292 26.2178V35.9624C43.1292 37.6193 41.786 38.9624 40.1292 38.9624L39.1292 34.9624V24.2178C39.1292 23.6655 39.1292 23.2178 39.1292 23.2178H40.1292Z" fill="white" mask="url(#path-5-inside-1_85_16)"/>
<path d="M33.6023 17L23.0703 25.9196" stroke="white" stroke-width="2" stroke-linecap="round"/>
<path d="M44.6287 25.5753C45.0503 25.9321 45.1028 26.5631 44.7461 26.9846C44.3893 27.4062 43.7583 27.4588 43.3367 27.102L44.6287 25.5753ZM33.5939 16.2367L44.6287 25.5753L43.3367 27.102L32.3019 17.7633L33.5939 16.2367Z" fill="white"/>
<path d="M33.9259 17.2543L23.3939 26.1739" stroke="white" stroke-width="2" stroke-linecap="round"/>
<path d="M44.9523 25.8296C45.3739 26.1863 45.4264 26.8173 45.0697 27.2389C44.7129 27.6605 44.0819 27.713 43.6603 27.3562L44.9523 25.8296ZM33.9175 16.4909L44.9523 25.8296L43.6603 27.3562L32.6255 18.0176L33.9175 16.4909Z" fill="white"/>
<path fill-rule="evenodd" clip-rule="evenodd" d="M33.5987 17.6684C29.3295 12.693 21.9501 11.1594 16.601 15.7153C11.2519 20.2713 10.4988 27.8885 14.6995 33.2769C18.1921 37.7568 28.7618 47.2056 32.226 50.2639C32.6135 50.606 32.8073 50.7771 33.0334 50.8442C33.2306 50.9028 33.4465 50.9028 33.6439 50.8442C33.87 50.7771 34.0636 50.606 34.4513 50.2639C37.9155 47.2056 48.4851 37.7568 51.9778 33.2769C56.1785 27.8885 55.5172 20.2233 50.0762 15.7153C44.6351 11.2073 37.8679 12.693 33.5987 17.6684Z" stroke="white" stroke-width="2" stroke-linecap="round" stroke-linejoin="round"/>
</g>
<defs>
<clipPath id="clip0_85_16">
<rect width="67" height="60" fill="white"/>
</clipPath>
</defs>
</svg>