<svg xmlns="http://www.w3.org/2000/svg" width="24" height="24" viewBox="0 0 24 24" fill="none">
<path fill-rule="evenodd" clip-rule="evenodd" d="M5.94601 5.59492C3.92853 4.15983 1 5.48359 1 7.83062V16.1694C1 18.5164 3.92853 19.8402 5.94601 18.4051L11 14.81V16.1694C11 18.5164 13.9285 19.8402 15.946 18.4051L21.8074 14.2357C23.3975 13.1046 23.3975 10.8954 21.8074 9.76429L15.946 5.59492C13.9285 4.15983 11 5.48359 11 7.83062V9.18996L5.94601 5.59492ZM3.0462 7.83062C3.0462 7.04828 4.02237 6.60703 4.69487 7.08539L10.5563 11.2548C11.0863 11.6318 11.0863 12.3682 10.5563 12.7452L4.69487 16.9146C4.02237 17.393 3.0462 16.9517 3.0462 16.1694V7.83062ZM13.0462 7.83062C13.0462 7.04828 14.0224 6.60703 14.6949 7.08539L20.5563 11.2548C21.0863 11.6318 21.0863 12.3682 20.5563 12.7452L14.6949 16.9146C14.0224 17.393 13.0462 16.9517 13.0462 16.1694V7.83062Z" fill="#F27984"/>
</svg>