<svg xmlns="http://www.w3.org/2000/svg" width="359" height="289" viewBox="0 0 359 289" fill="none">
<path d="M192.566 63.7272H191.566V63.7281L192.566 63.7272ZM192.583 83.1446H193.583V83.1437L192.583 83.1446ZM178.365 68.4051L178.327 69.4044C178.339 69.4049 178.352 69.4051 178.365 69.4051V68.4051ZM176.365 68.4051V69.4051C176.38 69.4051 176.395 69.4048 176.41 69.4041L176.365 68.4051ZM181.783 72.1082H180.783V72.1082L181.783 72.1082ZM181.783 73.8636H182.783V73.8635L181.783 73.8636ZM178.783 72.1082H177.783V72.1082L178.783 72.1082ZM178.783 73.8636H179.783V73.8636L178.783 73.8636ZM176.365 74.3636L175.915 75.2564C176.054 75.3269 176.209 75.3636 176.365 75.3636V74.3636ZM180.445 52.5899L181.104 51.8374L180.445 51.2609L179.787 51.8375L180.445 52.5899ZM164.016 65.6459C163.6 66.0098 163.558 66.6415 163.922 67.0571C164.286 67.4726 164.918 67.5145 165.333 67.1507L164.016 65.6459ZM196.335 67.8242C196.75 68.1879 197.382 68.1458 197.746 67.7302C198.11 67.3146 198.068 66.6829 197.652 66.3191L196.335 67.8242ZM180.379 52.5024L179.608 53.1388C179.798 53.369 180.081 53.5024 180.379 53.5024C180.678 53.5024 180.961 53.369 181.151 53.1388L180.379 52.5024ZM154.111 49.3637L154.774 50.1123L154.774 50.1123L154.111 49.3637ZM151.172 77.5859L150.372 78.1858L150.372 78.1858L151.172 77.5859ZM178.258 104.885L178.934 104.148L178.934 104.148L178.258 104.885ZM179.506 105.818L179.801 104.862L179.801 104.862L179.506 105.818ZM180.449 105.818L180.744 106.773L180.744 106.773L180.449 105.818ZM181.697 104.885L182.373 105.622L182.373 105.622L181.697 104.885ZM208.783 77.5859L209.583 78.1858L209.583 78.1858L208.783 77.5859ZM177.283 68.3636L177.321 67.3643C177.294 67.3632 177.266 67.3633 177.238 67.3646L177.283 68.3636ZM169.307 64.2272C169.307 64.3744 169.263 64.441 169.294 64.3714C169.314 64.327 169.354 64.2519 169.422 64.1472C169.556 63.9398 169.753 63.6853 169.976 63.4355C170.2 63.1848 170.425 62.966 170.607 62.8192C170.699 62.7449 170.76 62.7056 170.79 62.6896C170.845 62.6594 170.752 62.7272 170.566 62.7272V60.7272C170.242 60.7272 169.975 60.8559 169.831 60.9343C169.661 61.027 169.498 61.1442 169.353 61.2611C169.06 61.4968 168.755 61.7994 168.483 62.1047C168.21 62.4109 167.946 62.7469 167.743 63.0599C167.643 63.2155 167.545 63.3832 167.47 63.551C167.406 63.6937 167.307 63.9419 167.307 64.2272H169.307ZM170.566 62.7272H190.566V60.7272H170.566V62.7272ZM190.566 62.7272C190.437 62.7272 190.374 62.6908 190.408 62.7058C190.429 62.715 190.477 62.7399 190.551 62.7903C190.7 62.8907 190.884 63.0447 191.066 63.2272C191.248 63.4096 191.402 63.5936 191.503 63.742C191.553 63.8165 191.578 63.8645 191.587 63.8854C191.602 63.9196 191.566 63.8561 191.566 63.7272H193.566C193.566 63.4603 193.484 63.2307 193.418 63.08C193.346 62.916 193.253 62.7603 193.159 62.6214C192.971 62.343 192.729 62.0615 192.48 61.813C192.232 61.5645 191.95 61.3221 191.672 61.1338C191.533 61.0398 191.377 60.9473 191.213 60.8751C191.062 60.8088 190.833 60.7272 190.566 60.7272V62.7272ZM191.566 63.7281L191.583 83.1455L193.583 83.1437L193.566 63.7263L191.566 63.7281ZM191.583 83.1446V85.1446C192.688 85.1446 193.583 84.2492 193.583 83.1446H191.583ZM191.583 83.1446H169.307V85.1446H191.583V83.1446ZM169.307 83.1446H169.307H167.307C167.307 84.2492 168.203 85.1446 169.307 85.1446V83.1446ZM169.307 83.1446V64.2272H167.307V83.1446H169.307ZM176.783 65.8636C176.783 65.7215 176.786 65.6604 176.789 65.6297C176.793 65.597 176.789 65.6925 176.71 65.8167C176.667 65.8844 176.609 65.9481 176.54 66.0005C176.472 66.0514 176.409 66.0794 176.366 66.0942C176.295 66.1188 176.273 66.1082 176.365 66.1082V64.1082C176.045 64.1082 175.401 64.1499 175.024 64.7408C174.868 64.9848 174.822 65.2347 174.803 65.3953C174.784 65.5581 174.783 65.7295 174.783 65.8636H176.783ZM176.365 66.1082H178.365V64.1082H176.365V66.1082ZM178.365 66.1082C178.406 66.1082 178.417 66.1103 178.408 66.109C178.4 66.1079 178.347 66.1006 178.272 66.0688C178.19 66.0341 178.085 65.9711 177.991 65.8638C177.896 65.7568 177.847 65.6455 177.822 65.5626C177.8 65.4875 177.798 65.4346 177.798 65.4292C177.797 65.423 177.798 65.4311 177.796 65.4717C177.794 65.5315 177.783 65.6986 177.783 65.8636H179.783C179.783 65.7524 179.789 65.687 179.795 65.5534C179.798 65.4733 179.811 65.236 179.74 64.9949C179.639 64.6551 179.4 64.3753 179.055 64.2283C178.796 64.1182 178.531 64.1082 178.365 64.1082V66.1082ZM177.783 65.8636V68.1082H179.783V65.8636H177.783ZM177.783 68.1082C177.783 68.29 177.795 68.4161 177.798 68.461C177.799 68.4723 177.798 68.4631 177.798 68.4466C177.797 68.436 177.795 68.3744 177.808 68.2932C177.819 68.2195 177.857 68.0237 178.013 67.8301C178.198 67.6016 178.441 67.5029 178.636 67.4744C178.794 67.4512 178.916 67.4738 178.945 67.4792C178.968 67.4833 178.985 67.4874 178.992 67.4893C178.997 67.4904 179 67.4913 179.002 67.4918C179.003 67.4921 179.004 67.4923 179.004 67.4924C179.005 67.4924 179.005 67.4925 179.005 67.4925C179.005 67.4925 179.005 67.4926 179.005 67.4926C179.005 67.4925 179.005 67.4926 179.005 67.4926C179.008 67.4935 178.949 67.4763 178.892 67.463C178.757 67.4312 178.585 67.4051 178.365 67.4051V69.4051C178.395 69.4051 178.414 69.4068 178.422 69.4079C178.43 69.4089 178.434 69.4097 178.434 69.4098C178.443 69.4118 178.433 69.4096 178.475 69.421C178.487 69.4243 178.531 69.4366 178.584 69.4463C178.626 69.4541 178.76 69.4776 178.926 69.4532C179.13 69.4233 179.38 69.3212 179.569 69.0865C179.731 68.8867 179.772 68.6822 179.785 68.5965C179.799 68.5032 179.798 68.4264 179.797 68.397C179.796 68.3615 179.794 68.3297 179.793 68.3141C179.788 68.2516 179.783 68.2025 179.783 68.1082H177.783ZM176.365 67.4051C176.145 67.4051 175.974 67.4312 175.854 67.454C175.827 67.4592 175.802 67.4643 175.786 67.4676C175.766 67.4715 175.761 67.4726 175.758 67.4731C175.735 67.4774 175.819 67.4582 175.935 67.4661C176.087 67.4764 176.337 67.5363 176.545 67.7548C176.721 67.9386 176.764 68.1326 176.774 68.1798C176.787 68.2368 176.786 68.2689 176.785 68.2383C176.784 68.2149 176.783 68.1766 176.783 68.1082H174.783C174.783 68.2053 174.78 68.4153 174.818 68.5953C174.84 68.6963 174.9 68.927 175.098 69.1349C175.329 69.3774 175.608 69.4485 175.799 69.4614C175.953 69.472 176.084 69.4467 176.118 69.4405C176.144 69.4357 176.17 69.4304 176.185 69.4274C176.203 69.4237 176.215 69.4212 176.228 69.4188C176.269 69.411 176.309 69.4051 176.365 69.4051V67.4051ZM176.783 68.1082V65.8636H174.783V68.1082H176.783ZM182.783 66.1082C182.783 66.0358 182.782 65.9602 182.782 65.9116C182.781 65.8555 182.782 65.8217 182.783 65.7977C182.784 65.7733 182.785 65.7789 182.781 65.8011C182.777 65.8239 182.764 65.8839 182.728 65.9599C182.689 66.0419 182.628 66.1292 182.542 66.2051C182.457 66.2791 182.374 66.3198 182.316 66.3412C182.261 66.3613 182.226 66.3653 182.225 66.3654C182.224 66.3655 182.241 66.3635 182.283 66.3635V64.3635C182.11 64.3635 181.868 64.3752 181.628 64.4633C181.334 64.5708 181.075 64.7807 180.924 65.0976C180.803 65.3505 180.789 65.6001 180.784 65.7199C180.779 65.8403 180.783 66.0134 180.783 66.1082H182.783ZM182.283 66.3635H184.365V64.3635H182.283V66.3635ZM184.365 66.3635C184.438 66.3635 184.508 66.3626 184.549 66.3624C184.6 66.362 184.61 66.3626 184.606 66.3624C184.602 66.3621 184.583 66.361 184.554 66.3565C184.526 66.3522 184.475 66.3426 184.411 66.3206C184.267 66.2705 184.074 66.1591 183.936 65.9418C183.819 65.7557 183.803 65.5849 183.799 65.5395C183.796 65.4912 183.799 65.462 183.797 65.4981C183.794 65.5449 183.783 65.6896 183.783 65.8636H185.783C185.783 65.7613 185.789 65.7055 185.794 65.6067C185.796 65.5701 185.801 65.4819 185.793 65.3858C185.786 65.2926 185.761 65.0852 185.626 64.8711C185.309 64.371 184.759 64.3678 184.721 64.3656C184.619 64.3598 184.445 64.3635 184.365 64.3635V66.3635ZM183.783 65.8636V68.1082H185.783V65.8636H183.783ZM183.783 68.1082C183.783 68.1823 183.784 68.2488 183.784 68.2855C183.785 68.3373 183.784 68.3296 183.785 68.3065C183.786 68.2927 183.79 68.2455 183.805 68.1826C183.819 68.1237 183.854 67.9976 183.949 67.8614C184.057 67.7056 184.218 67.5726 184.421 67.4999C184.602 67.4351 184.756 67.4402 184.832 67.4472C184.909 67.4543 184.965 67.4694 184.978 67.4729C184.993 67.4772 185.003 67.4805 184.99 67.4764C184.973 67.471 184.917 67.4522 184.849 67.4344C184.703 67.3957 184.516 67.3636 184.283 67.3636V69.3636C184.307 69.3636 184.321 69.3651 184.327 69.366C184.334 69.3668 184.337 69.3676 184.339 69.3682C184.344 69.3697 184.347 69.3704 184.378 69.3804C184.389 69.3839 184.42 69.3939 184.454 69.4032C184.485 69.4117 184.557 69.4303 184.648 69.4387C184.738 69.447 184.904 69.4513 185.095 69.3829C185.308 69.3067 185.477 69.1673 185.592 69.0019C185.769 68.7469 185.778 68.4782 185.78 68.4557C185.787 68.3573 185.783 68.1744 185.783 68.1082H183.783ZM182.283 67.3636C182.05 67.3636 181.863 67.3957 181.717 67.4344C181.649 67.4522 181.593 67.471 181.576 67.4764C181.563 67.4805 181.573 67.4772 181.589 67.4729C181.601 67.4694 181.657 67.4543 181.734 67.4472C181.81 67.4402 181.964 67.4351 182.145 67.4998C182.348 67.5725 182.509 67.7054 182.617 67.8612C182.711 67.9973 182.747 68.1235 182.761 68.1824C182.776 68.2453 182.78 68.2926 182.781 68.3063C182.782 68.3295 182.781 68.3373 182.782 68.2855C182.782 68.2488 182.783 68.1822 182.783 68.1082H180.783C180.783 68.1745 180.779 68.3573 180.786 68.4558C180.788 68.4784 180.797 68.7471 180.974 69.0022C181.089 69.1675 181.258 69.3068 181.471 69.383C181.662 69.4513 181.828 69.447 181.918 69.4387C182.009 69.4303 182.081 69.4117 182.112 69.4032C182.146 69.3939 182.177 69.3839 182.188 69.3804C182.219 69.3704 182.222 69.3697 182.227 69.3682C182.229 69.3676 182.233 69.3668 182.239 69.366C182.245 69.3651 182.259 69.3636 182.283 69.3636V67.3636ZM182.783 68.1082V66.1082H180.783V68.1082H182.783ZM182.783 72.1082C182.783 71.9723 182.785 71.8822 182.792 71.8139C182.799 71.7425 182.806 71.7481 182.788 71.7903C182.764 71.8472 182.701 71.9532 182.573 72.0332C182.453 72.1088 182.36 72.1082 182.365 72.1082V70.1082C182.094 70.1082 181.79 70.1635 181.509 70.3403C181.22 70.5215 181.046 70.774 180.946 71.0118C180.776 71.4131 180.783 71.8774 180.783 72.1082H182.783ZM182.365 72.1082H184.365V70.1082H182.365V72.1082ZM184.365 72.1082C184.383 72.1082 184.226 72.1136 184.049 71.9762C183.859 71.828 183.81 71.644 183.8 71.5934C183.794 71.5616 183.8 71.5683 183.796 71.6858C183.793 71.7637 183.783 71.9499 183.783 72.1082H185.783C185.783 71.9903 185.789 71.9134 185.795 71.752C185.799 71.6303 185.804 71.4215 185.762 71.2087C185.717 70.9772 185.598 70.6467 185.277 70.3973C184.97 70.1587 184.624 70.1082 184.365 70.1082V72.1082ZM183.783 72.1082V73.8636H185.783V72.1082H183.783ZM183.783 73.8636C183.783 74.0375 183.794 74.1823 183.797 74.229C183.799 74.2652 183.796 74.2361 183.799 74.1878C183.803 74.1424 183.818 73.9716 183.936 73.7854C184.074 73.5681 184.267 73.4566 184.411 73.4065C184.474 73.3846 184.526 73.375 184.554 73.3706C184.583 73.3662 184.602 73.365 184.606 73.3648C184.61 73.3645 184.6 73.3651 184.549 73.3648C184.508 73.3645 184.438 73.3636 184.365 73.3636V75.3636C184.445 75.3636 184.619 75.3673 184.72 75.3615C184.759 75.3593 185.309 75.3561 185.626 74.8559C185.761 74.6418 185.786 74.4344 185.793 74.3412C185.801 74.2451 185.796 74.157 185.794 74.1203C185.788 74.0216 185.783 73.9658 185.783 73.8636H183.783ZM184.365 73.3636H182.365V75.3636H184.365V73.3636ZM182.365 73.3636C182.292 73.3636 182.219 73.3645 182.175 73.3648C182.122 73.3651 182.099 73.3647 182.087 73.3642C182.074 73.3636 182.108 73.3638 182.164 73.3768C182.224 73.3907 182.337 73.4255 182.458 73.5138C182.735 73.7172 182.78 73.9919 182.784 74.0198C182.787 74.0396 182.786 74.0408 182.785 74.0069C182.784 73.975 182.783 73.9308 182.783 73.8636H180.783C180.783 73.9842 180.783 74.1657 180.808 74.3296C180.836 74.503 180.922 74.8682 181.276 75.1276C181.575 75.3464 181.902 75.3577 181.995 75.362C182.105 75.3671 182.276 75.3636 182.365 75.3636V73.3636ZM182.783 73.8635L182.783 72.1081L180.783 72.1082L180.783 73.8636L182.783 73.8635ZM176.783 72.1082C176.783 71.9723 176.785 71.8821 176.792 71.8139C176.799 71.7424 176.806 71.748 176.788 71.7902C176.764 71.8471 176.701 71.9531 176.574 72.0332C176.453 72.1088 176.36 72.1082 176.365 72.1082V70.1082C176.094 70.1082 175.79 70.1635 175.509 70.3403C175.22 70.5216 175.046 70.774 174.946 71.0119C174.776 71.4131 174.783 71.8774 174.783 72.1082H176.783ZM176.365 72.1082H178.365V70.1082H176.365V72.1082ZM178.365 72.1082C178.383 72.1082 178.226 72.1136 178.049 71.9762C177.859 71.8281 177.81 71.644 177.8 71.5934C177.794 71.5617 177.8 71.5683 177.796 71.6859C177.793 71.7637 177.783 71.9499 177.783 72.1082H179.783C179.783 71.9903 179.789 71.9134 179.795 71.752C179.799 71.6302 179.804 71.4214 179.762 71.2087C179.717 70.9771 179.598 70.6466 179.277 70.3973C178.97 70.1587 178.624 70.1082 178.365 70.1082V72.1082ZM177.783 72.1082L177.783 73.8636L179.783 73.8636L179.783 72.1081L177.783 72.1082ZM177.783 73.8636C177.783 74.0375 177.794 74.1822 177.797 74.229C177.799 74.2651 177.796 74.2359 177.799 74.1876C177.803 74.1422 177.819 73.9714 177.937 73.7853C178.074 73.568 178.268 73.4566 178.411 73.4065C178.475 73.3846 178.526 73.375 178.554 73.3706C178.583 73.3662 178.602 73.365 178.606 73.3648C178.61 73.3645 178.6 73.3651 178.549 73.3648C178.508 73.3645 178.438 73.3636 178.365 73.3636V75.3636C178.445 75.3636 178.619 75.3673 178.721 75.3615C178.759 75.3593 179.309 75.3561 179.626 74.8561C179.761 74.642 179.786 74.4346 179.793 74.3414C179.801 74.2452 179.796 74.1571 179.794 74.1204C179.789 74.0216 179.783 73.9658 179.783 73.8636H177.783ZM178.365 73.3636H176.365V75.3636H178.365V73.3636ZM176.815 73.4707C176.541 73.3325 176.255 73.2714 175.968 73.2978C175.699 73.3227 175.497 73.4249 175.473 73.4358C175.463 73.4402 175.485 73.4295 175.518 73.4178C175.546 73.4076 175.639 73.3752 175.766 73.3666C175.908 73.357 176.117 73.3762 176.327 73.5009C176.531 73.6222 176.641 73.7868 176.696 73.8965C176.748 73.9999 176.767 74.0861 176.774 74.1198C176.782 74.1587 176.784 74.1847 176.784 74.1876C176.784 74.1913 176.783 74.1729 176.783 74.1082H174.783C174.783 74.1815 174.784 74.2666 174.79 74.3469C174.794 74.3905 174.806 74.5893 174.909 74.7938C174.972 74.9185 175.091 75.0931 175.305 75.2204C175.526 75.3513 175.746 75.3726 175.901 75.362C176.042 75.3525 176.149 75.3162 176.194 75.3C176.244 75.2823 176.285 75.2634 176.296 75.2586C176.354 75.2324 176.265 75.279 176.152 75.2893C176.023 75.3013 175.935 75.2669 175.915 75.2564L176.815 73.4707ZM176.783 74.1082V72.1082H174.783V74.1082H176.783ZM179.787 51.8375L164.016 65.6459L165.333 67.1507L181.104 53.3423L179.787 51.8375ZM179.787 53.3424L196.335 67.8242L197.652 66.3191L181.104 51.8374L179.787 53.3424ZM181.151 51.8659C174.281 43.5402 162.235 40.8326 153.448 48.6151L154.774 50.1123C162.52 43.2515 173.283 45.4733 179.608 53.1388L181.151 51.8659ZM153.448 48.6151C144.791 56.2822 143.568 69.1102 150.372 78.1858L151.972 76.9861C145.792 68.7429 146.897 57.0883 154.774 50.1123L153.448 48.6151ZM150.372 78.1858C153.124 81.8565 158.612 87.504 164.032 92.8069C169.471 98.128 174.901 103.161 177.582 105.622L178.934 104.148C176.261 101.694 170.848 96.6772 165.431 91.3774C159.995 86.0594 154.618 80.5148 151.972 76.9861L150.372 78.1858ZM177.582 105.621C177.869 105.886 178.128 106.124 178.36 106.305C178.604 106.495 178.875 106.669 179.211 106.773L179.801 104.862C179.787 104.858 179.734 104.84 179.591 104.729C179.436 104.608 179.245 104.434 178.934 104.148L177.582 105.621ZM179.211 106.773C179.708 106.927 180.247 106.926 180.744 106.773L180.154 104.862C180.041 104.897 179.913 104.897 179.801 104.862L179.211 106.773ZM180.744 106.773C181.08 106.669 181.351 106.495 181.595 106.305C181.827 106.124 182.085 105.886 182.373 105.622L181.021 104.148C180.709 104.434 180.519 104.608 180.364 104.729C180.221 104.841 180.168 104.858 180.154 104.862L180.744 106.773ZM182.373 105.622C185.054 103.161 190.484 98.128 195.923 92.8069C201.343 87.504 206.831 81.8565 209.583 78.1858L207.983 76.9861C205.337 80.5148 199.96 86.0594 194.524 91.3774C189.107 96.6772 183.694 101.694 181.021 104.148L182.373 105.622ZM209.583 78.1858C216.379 69.1214 215.319 56.2067 206.497 48.6061L205.192 50.1213C213.187 57.0098 214.171 68.7317 207.983 76.9861L209.583 78.1858ZM206.497 48.6061C202.08 44.8008 197.072 43.4925 192.281 44.2295C187.51 44.9635 183.037 47.7103 179.608 51.8659L181.151 53.1388C184.319 49.2988 188.375 46.854 192.585 46.2063C196.774 45.5618 201.2 46.6819 205.192 50.1213L206.497 48.6061ZM184.283 67.3636H183.283V69.3636H184.283V67.3636ZM183.283 67.3636H182.283V69.3636H183.283V67.3636ZM178.403 67.4059L177.321 67.3643L177.245 69.3628L178.327 69.4044L178.403 67.4059ZM177.238 67.3646L176.32 67.4062L176.41 69.4041L177.328 69.3625L177.238 67.3646Z" fill="#FF5A5F"/>
<path d="M189 98.5V108.443L183.938 111.845V142.464L179.5 147L175 142.464V135.5L178 132V128L175 124V119L178 116.5V111.845L177 108H173.5H171H170V98" stroke="#FF5A5F" stroke-width="2"/>
<rect x="176" y="65" width="3" height="3" fill="#FF5A5F"/>
<rect x="182" y="66" width="2" height="2" fill="#FF5A5F"/>
<rect x="182" y="71" width="3" height="3" fill="#FF5A5F"/>
<rect x="176" y="71" width="3" height="3" fill="#FF5A5F"/>
<path d="M75.44 159.344V159.984C74.7147 160.005 74.16 160.112 73.776 160.304C73.4133 160.496 73.168 160.805 73.04 161.232C72.912 161.659 72.848 162.267 72.848 163.056V182.16C72.72 182.16 72.592 182.16 72.464 182.16C72.3573 182.16 72.24 182.16 72.112 182.16L58.672 161.392V178.288C58.672 179.056 58.736 179.664 58.864 180.112C59.0133 180.539 59.2907 180.848 59.696 181.04C60.1227 181.211 60.752 181.317 61.584 181.36V182C61.2 181.957 60.6987 181.936 60.08 181.936C59.4613 181.915 58.8747 181.904 58.32 181.904C57.7867 181.904 57.2427 181.915 56.688 181.936C56.1547 181.936 55.7067 181.957 55.344 182V181.36C56.0693 181.317 56.6133 181.211 56.976 181.04C57.36 180.848 57.616 180.539 57.744 180.112C57.872 179.664 57.936 179.056 57.936 178.288V162.736C57.936 161.947 57.872 161.371 57.744 161.008C57.616 160.624 57.36 160.368 56.976 160.24C56.6133 160.091 56.0693 160.005 55.344 159.984V159.344C55.7067 159.365 56.1547 159.387 56.688 159.408C57.2427 159.429 57.7867 159.44 58.32 159.44C58.7893 159.44 59.2373 159.429 59.664 159.408C60.0907 159.387 60.4747 159.365 60.816 159.344L72.112 176.752V163.056C72.112 162.267 72.0373 161.659 71.888 161.232C71.76 160.805 71.4827 160.496 71.056 160.304C70.6507 160.112 70.032 160.005 69.2 159.984V159.344C69.584 159.365 70.0853 159.387 70.704 159.408C71.344 159.429 71.9307 159.44 72.464 159.44C73.0187 159.44 73.5627 159.429 74.096 159.408C74.6507 159.387 75.0987 159.365 75.44 159.344ZM84.7993 165.072C86.1646 165.072 87.3913 165.371 88.4793 165.968C89.5673 166.565 90.4313 167.504 91.0713 168.784C91.7326 170.064 92.0633 171.728 92.0633 173.776C92.0633 175.824 91.7326 177.488 91.0713 178.768C90.4313 180.027 89.5673 180.955 88.4793 181.552C87.3913 182.149 86.1646 182.448 84.7993 182.448C83.4553 182.448 82.2286 182.149 81.1193 181.552C80.0313 180.955 79.1566 180.027 78.4953 178.768C77.8553 177.488 77.5353 175.824 77.5353 173.776C77.5353 171.728 77.8553 170.064 78.4953 168.784C79.1566 167.504 80.0313 166.565 81.1193 165.968C82.2286 165.371 83.4553 165.072 84.7993 165.072ZM84.7993 165.712C83.5833 165.712 82.5806 166.341 81.7913 167.6C81.0233 168.859 80.6393 170.917 80.6393 173.776C80.6393 176.635 81.0233 178.693 81.7913 179.952C82.5806 181.189 83.5833 181.808 84.7993 181.808C86.0153 181.808 87.0073 181.189 87.7753 179.952C88.5646 178.693 88.9593 176.635 88.9593 173.776C88.9593 170.917 88.5646 168.859 87.7753 167.6C87.0073 166.341 86.0153 165.712 84.7993 165.712ZM104.443 165.072C105.019 165.072 105.52 165.189 105.947 165.424C106.395 165.659 106.736 165.968 106.971 166.352C107.227 166.715 107.355 167.131 107.355 167.6C107.355 168.133 107.184 168.603 106.843 169.008C106.523 169.413 106.085 169.616 105.531 169.616C105.083 169.616 104.688 169.477 104.347 169.2C104.005 168.901 103.835 168.485 103.835 167.952C103.835 167.547 103.941 167.205 104.155 166.928C104.389 166.629 104.645 166.395 104.923 166.224C104.773 166.011 104.549 165.904 104.251 165.904C103.589 165.904 102.981 166.107 102.427 166.512C101.872 166.896 101.403 167.397 101.019 168.016C100.635 168.635 100.336 169.296 100.123 170C99.9092 170.683 99.8025 171.323 99.8025 171.92V178.704C99.8025 179.749 100.101 180.453 100.699 180.816C101.317 181.157 102.149 181.328 103.195 181.328V182C102.704 181.979 102.011 181.957 101.115 181.936C100.219 181.893 99.2692 181.872 98.2665 181.872C97.5412 181.872 96.8158 181.893 96.0905 181.936C95.3865 181.957 94.8532 181.979 94.4905 182V181.328C95.3652 181.328 95.9838 181.168 96.3465 180.848C96.7305 180.528 96.9225 179.92 96.9225 179.024V169.008C96.9225 168.048 96.7518 167.344 96.4105 166.896C96.0692 166.427 95.4292 166.192 94.4905 166.192V165.52C95.1732 165.584 95.8345 165.616 96.4745 165.616C97.0932 165.616 97.6798 165.584 98.2345 165.52C98.8105 165.435 99.3332 165.317 99.8025 165.168V169.168C100.037 168.549 100.368 167.931 100.795 167.312C101.243 166.672 101.776 166.139 102.395 165.712C103.013 165.285 103.696 165.072 104.443 165.072ZM122.676 156.912V178.512C122.676 179.472 122.846 180.187 123.188 180.656C123.55 181.104 124.19 181.328 125.108 181.328V182C124.446 181.936 123.785 181.904 123.124 181.904C122.505 181.904 121.908 181.936 121.332 182C120.777 182.064 120.265 182.181 119.796 182.352V160.752C119.796 159.792 119.625 159.088 119.284 158.64C118.942 158.171 118.302 157.936 117.364 157.936V157.264C118.046 157.328 118.708 157.36 119.348 157.36C119.966 157.36 120.553 157.328 121.108 157.264C121.684 157.179 122.206 157.061 122.676 156.912ZM115.956 165.072C116.894 165.072 117.769 165.296 118.58 165.744C119.412 166.192 119.966 166.96 120.244 168.048L119.828 168.368C119.529 167.472 119.06 166.821 118.42 166.416C117.801 166.011 117.065 165.808 116.212 165.808C114.953 165.808 113.897 166.459 113.044 167.76C112.212 169.061 111.806 171.067 111.828 173.776C111.828 175.504 111.988 176.944 112.308 178.096C112.649 179.227 113.14 180.08 113.78 180.656C114.441 181.211 115.241 181.488 116.18 181.488C117.076 181.488 117.886 181.104 118.612 180.336C119.337 179.568 119.774 178.437 119.924 176.944L120.308 177.392C120.137 179.013 119.614 180.261 118.74 181.136C117.886 182.011 116.724 182.448 115.252 182.448C113.929 182.448 112.766 182.128 111.764 181.488C110.782 180.848 110.025 179.888 109.492 178.608C108.98 177.328 108.724 175.717 108.724 173.776C108.724 171.835 109.054 170.224 109.716 168.944C110.398 167.643 111.284 166.672 112.372 166.032C113.481 165.392 114.676 165.072 115.956 165.072ZM130.357 157.52C130.912 157.52 131.392 157.723 131.797 158.128C132.203 158.533 132.405 159.013 132.405 159.568C132.405 160.123 132.203 160.603 131.797 161.008C131.392 161.413 130.912 161.616 130.357 161.616C129.803 161.616 129.323 161.413 128.917 161.008C128.512 160.603 128.309 160.123 128.309 159.568C128.309 159.013 128.512 158.533 128.917 158.128C129.323 157.723 129.803 157.52 130.357 157.52ZM132.021 165.168V179.024C132.021 179.92 132.203 180.528 132.565 180.848C132.949 181.168 133.579 181.328 134.453 181.328V182C134.091 181.979 133.536 181.957 132.789 181.936C132.064 181.893 131.328 181.872 130.581 181.872C129.856 181.872 129.12 181.893 128.373 181.936C127.627 181.957 127.072 181.979 126.709 182V181.328C127.584 181.328 128.203 181.168 128.565 180.848C128.949 180.528 129.141 179.92 129.141 179.024V169.008C129.141 168.048 128.971 167.344 128.629 166.896C128.288 166.427 127.648 166.192 126.709 166.192V165.52C127.392 165.584 128.053 165.616 128.693 165.616C129.312 165.616 129.899 165.584 130.453 165.52C131.029 165.435 131.552 165.317 132.021 165.168ZM141.812 165.072C142.666 165.072 143.391 165.211 143.988 165.488C144.586 165.765 145.023 166.021 145.3 166.256C146.004 166.832 146.431 166.448 146.58 165.104H147.316C147.274 165.701 147.242 166.416 147.22 167.248C147.199 168.059 147.188 169.157 147.188 170.544H146.452C146.324 169.755 146.1 168.987 145.78 168.24C145.482 167.493 145.034 166.885 144.436 166.416C143.839 165.925 143.06 165.68 142.1 165.68C141.354 165.68 140.724 165.893 140.212 166.32C139.722 166.725 139.476 167.333 139.476 168.144C139.476 168.784 139.668 169.339 140.052 169.808C140.436 170.256 140.938 170.683 141.556 171.088C142.175 171.472 142.847 171.899 143.572 172.368C144.383 172.88 145.119 173.403 145.78 173.936C146.442 174.469 146.964 175.056 147.348 175.696C147.754 176.336 147.956 177.093 147.956 177.968C147.956 178.949 147.7 179.771 147.188 180.432C146.676 181.093 146.004 181.595 145.172 181.936C144.362 182.277 143.466 182.448 142.484 182.448C142.015 182.448 141.567 182.405 141.14 182.32C140.735 182.256 140.34 182.149 139.956 182C139.743 181.893 139.519 181.765 139.284 181.616C139.071 181.467 138.858 181.307 138.644 181.136C138.431 180.965 138.239 180.976 138.068 181.168C137.898 181.339 137.77 181.691 137.684 182.224H136.948C136.991 181.541 137.023 180.709 137.044 179.728C137.066 178.747 137.076 177.445 137.076 175.824H137.812C137.962 177.019 138.175 178.064 138.452 178.96C138.73 179.856 139.167 180.56 139.764 181.072C140.362 181.563 141.194 181.808 142.26 181.808C142.687 181.808 143.114 181.712 143.54 181.52C143.988 181.328 144.362 181.008 144.66 180.56C144.959 180.112 145.108 179.515 145.108 178.768C145.108 177.829 144.767 177.061 144.084 176.464C143.402 175.867 142.538 175.237 141.492 174.576C140.724 174.085 139.999 173.595 139.316 173.104C138.655 172.613 138.111 172.059 137.684 171.44C137.279 170.821 137.076 170.075 137.076 169.2C137.076 168.24 137.29 167.461 137.716 166.864C138.164 166.245 138.751 165.797 139.476 165.52C140.202 165.221 140.98 165.072 141.812 165.072ZM155.421 156.912V179.024C155.421 179.92 155.581 180.528 155.901 180.848C156.221 181.168 156.765 181.328 157.533 181.328V182C157.191 181.979 156.679 181.957 155.997 181.936C155.335 181.893 154.663 181.872 153.981 181.872C153.255 181.872 152.519 181.893 151.773 181.936C151.026 181.957 150.471 181.979 150.109 182V181.328C150.983 181.328 151.602 181.168 151.965 180.848C152.349 180.528 152.541 179.92 152.541 179.024V160.752C152.541 159.792 152.37 159.088 152.029 158.64C151.687 158.171 151.047 157.936 150.109 157.936V157.264C150.791 157.328 151.453 157.36 152.093 157.36C152.711 157.36 153.298 157.328 153.853 157.264C154.429 157.179 154.951 157.061 155.421 156.912ZM165.597 165.52V166.16C165.063 166.203 164.562 166.352 164.093 166.608C163.623 166.843 163.165 167.195 162.717 167.664L158.205 172.4L158.653 171.504L164.605 179.664C164.967 180.155 165.309 180.539 165.629 180.816C165.97 181.093 166.375 181.264 166.845 181.328V182C166.61 181.979 166.237 181.957 165.725 181.936C165.234 181.893 164.743 181.872 164.253 181.872C163.591 181.872 162.919 181.893 162.237 181.936C161.554 181.957 161.042 181.979 160.701 182V181.328C161.127 181.328 161.426 181.221 161.597 181.008C161.767 180.795 161.735 180.539 161.501 180.24L157.821 174.864C157.415 174.288 157.042 173.915 156.701 173.744C156.381 173.573 155.911 173.477 155.293 173.456V172.816C155.975 172.731 156.53 172.592 156.957 172.4C157.383 172.187 157.789 171.877 158.173 171.472L160.541 169.008C161.223 168.304 161.565 167.749 161.565 167.344C161.565 166.917 161.341 166.619 160.893 166.448C160.466 166.256 159.901 166.16 159.197 166.16V165.52C159.751 165.541 160.37 165.573 161.053 165.616C161.757 165.637 162.343 165.648 162.813 165.648C163.175 165.648 163.527 165.648 163.869 165.648C164.21 165.627 164.53 165.605 164.829 165.584C165.127 165.563 165.383 165.541 165.597 165.52ZM182.848 158.992C183.915 158.992 184.726 159.12 185.28 159.376C185.835 159.611 186.326 159.877 186.752 160.176C187.008 160.325 187.211 160.443 187.36 160.528C187.531 160.592 187.691 160.624 187.84 160.624C188.054 160.624 188.203 160.507 188.288 160.272C188.395 160.037 188.48 159.685 188.544 159.216H189.28C189.259 159.579 189.227 160.016 189.184 160.528C189.163 161.019 189.142 161.68 189.12 162.512C189.12 163.323 189.12 164.4 189.12 165.744H188.384C188.32 164.72 188.096 163.739 187.712 162.8C187.328 161.861 186.763 161.093 186.016 160.496C185.291 159.899 184.331 159.6 183.136 159.6C182.006 159.6 181.067 159.941 180.32 160.624C179.595 161.307 179.232 162.203 179.232 163.312C179.232 164.272 179.478 165.083 179.968 165.744C180.459 166.384 181.11 166.971 181.92 167.504C182.752 168.016 183.648 168.571 184.608 169.168C185.718 169.851 186.699 170.533 187.552 171.216C188.427 171.877 189.11 172.613 189.6 173.424C190.112 174.235 190.368 175.216 190.368 176.368C190.368 177.733 190.059 178.864 189.44 179.76C188.822 180.656 188 181.328 186.976 181.776C185.952 182.224 184.822 182.448 183.584 182.448C182.454 182.448 181.558 182.32 180.896 182.064C180.235 181.808 179.67 181.541 179.2 181.264C178.731 180.965 178.368 180.816 178.112 180.816C177.899 180.816 177.739 180.933 177.632 181.168C177.547 181.403 177.472 181.755 177.408 182.224H176.672C176.715 181.776 176.736 181.253 176.736 180.656C176.758 180.037 176.768 179.237 176.768 178.256C176.79 177.275 176.8 176.037 176.8 174.544H177.536C177.622 175.824 177.856 177.019 178.24 178.128C178.646 179.237 179.254 180.133 180.064 180.816C180.896 181.477 181.995 181.808 183.36 181.808C184.064 181.808 184.726 181.669 185.344 181.392C185.984 181.093 186.507 180.635 186.912 180.016C187.318 179.376 187.52 178.555 187.52 177.552C187.52 176.677 187.307 175.92 186.88 175.28C186.475 174.619 185.899 174.011 185.152 173.456C184.406 172.88 183.531 172.293 182.528 171.696C181.526 171.077 180.587 170.448 179.712 169.808C178.838 169.168 178.134 168.432 177.6 167.6C177.088 166.747 176.832 165.723 176.832 164.528C176.832 163.269 177.11 162.235 177.664 161.424C178.24 160.592 178.987 159.984 179.904 159.6C180.822 159.195 181.803 158.992 182.848 158.992ZM198.018 160.208V165.552H202.754V166.192H198.018V178.576C198.018 179.579 198.199 180.283 198.562 180.688C198.924 181.093 199.426 181.296 200.066 181.296C200.706 181.296 201.26 181.04 201.73 180.528C202.199 179.995 202.604 179.109 202.946 177.872L203.586 178.032C203.372 179.269 202.946 180.315 202.306 181.168C201.687 182.021 200.727 182.448 199.426 182.448C198.7 182.448 198.103 182.352 197.634 182.16C197.164 181.989 196.748 181.733 196.386 181.392C195.916 180.901 195.586 180.315 195.394 179.632C195.223 178.949 195.138 178.043 195.138 176.912V166.192H192.066V165.552H195.138V160.656C195.671 160.635 196.183 160.592 196.674 160.528C197.164 160.464 197.612 160.357 198.018 160.208ZM208.722 182.224C207.847 182.224 207.09 182.064 206.45 181.744C205.81 181.403 205.319 180.933 204.978 180.336C204.658 179.739 204.498 179.045 204.498 178.256C204.498 177.317 204.711 176.549 205.138 175.952C205.586 175.355 206.151 174.875 206.834 174.512C207.517 174.149 208.231 173.851 208.978 173.616C209.746 173.36 210.471 173.125 211.154 172.912C211.837 172.677 212.391 172.411 212.818 172.112C213.266 171.813 213.49 171.419 213.49 170.928V168.944C213.49 168.048 213.351 167.365 213.074 166.896C212.818 166.427 212.466 166.117 212.018 165.968C211.57 165.797 211.069 165.712 210.514 165.712C209.981 165.712 209.405 165.787 208.786 165.936C208.189 166.085 207.709 166.395 207.346 166.864C207.751 166.949 208.103 167.163 208.402 167.504C208.701 167.845 208.85 168.283 208.85 168.816C208.85 169.349 208.679 169.776 208.338 170.096C207.997 170.395 207.559 170.544 207.026 170.544C206.407 170.544 205.949 170.352 205.65 169.968C205.373 169.563 205.234 169.115 205.234 168.624C205.234 168.069 205.373 167.621 205.65 167.28C205.927 166.939 206.279 166.619 206.706 166.32C207.197 165.979 207.826 165.691 208.594 165.456C209.383 165.2 210.269 165.072 211.25 165.072C212.125 165.072 212.871 165.179 213.49 165.392C214.109 165.584 214.621 165.872 215.026 166.256C215.581 166.768 215.943 167.397 216.114 168.144C216.285 168.869 216.37 169.744 216.37 170.768V179.664C216.37 180.197 216.445 180.581 216.594 180.816C216.765 181.051 217.021 181.168 217.362 181.168C217.597 181.168 217.821 181.115 218.034 181.008C218.247 180.901 218.503 180.731 218.802 180.496L219.154 181.04C218.706 181.381 218.279 181.669 217.874 181.904C217.469 182.117 216.925 182.224 216.242 182.224C215.623 182.224 215.111 182.117 214.706 181.904C214.301 181.691 213.991 181.381 213.778 180.976C213.586 180.549 213.49 180.016 213.49 179.376C212.914 180.336 212.221 181.051 211.41 181.52C210.621 181.989 209.725 182.224 208.722 182.224ZM209.874 180.944C210.578 180.944 211.229 180.741 211.826 180.336C212.445 179.931 212.999 179.323 213.49 178.512V172.24C213.234 172.603 212.861 172.912 212.37 173.168C211.879 173.403 211.346 173.648 210.77 173.904C210.194 174.139 209.639 174.427 209.106 174.768C208.594 175.088 208.167 175.515 207.826 176.048C207.485 176.581 207.314 177.275 207.314 178.128C207.314 178.981 207.538 179.664 207.986 180.176C208.455 180.688 209.085 180.944 209.874 180.944ZM230.868 165.072C231.678 165.072 232.35 165.179 232.884 165.392C233.438 165.605 233.897 165.904 234.26 166.288C234.665 166.715 234.953 167.248 235.124 167.888C235.294 168.528 235.38 169.392 235.38 170.48V179.024C235.38 179.92 235.561 180.528 235.924 180.848C236.308 181.168 236.937 181.328 237.812 181.328V182C237.449 181.979 236.894 181.957 236.148 181.936C235.401 181.893 234.676 181.872 233.972 181.872C233.268 181.872 232.574 181.893 231.892 181.936C231.23 181.957 230.729 181.979 230.388 182V181.328C231.156 181.328 231.7 181.168 232.02 180.848C232.34 180.528 232.5 179.92 232.5 179.024V169.776C232.5 169.115 232.446 168.507 232.34 167.952C232.233 167.397 231.988 166.949 231.604 166.608C231.241 166.267 230.676 166.096 229.908 166.096C229.012 166.096 228.222 166.352 227.54 166.864C226.878 167.376 226.356 168.08 225.972 168.976C225.609 169.851 225.428 170.832 225.428 171.92V179.024C225.428 179.92 225.588 180.528 225.908 180.848C226.228 181.168 226.772 181.328 227.54 181.328V182C227.198 181.979 226.686 181.957 226.004 181.936C225.342 181.893 224.66 181.872 223.956 181.872C223.252 181.872 222.526 181.893 221.78 181.936C221.033 181.957 220.478 181.979 220.116 182V181.328C220.99 181.328 221.609 181.168 221.972 180.848C222.356 180.528 222.548 179.92 222.548 179.024V169.008C222.548 168.048 222.377 167.344 222.036 166.896C221.694 166.427 221.054 166.192 220.116 166.192V165.52C220.798 165.584 221.46 165.616 222.1 165.616C222.718 165.616 223.305 165.584 223.86 165.52C224.436 165.435 224.958 165.317 225.428 165.168V168.944C225.982 167.493 226.75 166.491 227.732 165.936C228.734 165.36 229.78 165.072 230.868 165.072ZM253.769 156.912V178.512C253.769 179.472 253.94 180.187 254.281 180.656C254.644 181.104 255.284 181.328 256.201 181.328V182C255.54 181.936 254.879 181.904 254.217 181.904C253.599 181.904 253.001 181.936 252.425 182C251.871 182.064 251.359 182.181 250.889 182.352V160.752C250.889 159.792 250.719 159.088 250.377 158.64C250.036 158.171 249.396 157.936 248.457 157.936V157.264C249.14 157.328 249.801 157.36 250.441 157.36C251.06 157.36 251.647 157.328 252.201 157.264C252.777 157.179 253.3 157.061 253.769 156.912ZM247.049 165.072C247.988 165.072 248.863 165.296 249.673 165.744C250.505 166.192 251.06 166.96 251.337 168.048L250.921 168.368C250.623 167.472 250.153 166.821 249.513 166.416C248.895 166.011 248.159 165.808 247.305 165.808C246.047 165.808 244.991 166.459 244.137 167.76C243.305 169.061 242.9 171.067 242.921 173.776C242.921 175.504 243.081 176.944 243.401 178.096C243.743 179.227 244.233 180.08 244.873 180.656C245.535 181.211 246.335 181.488 247.273 181.488C248.169 181.488 248.98 181.104 249.705 180.336C250.431 179.568 250.868 178.437 251.017 176.944L251.401 177.392C251.231 179.013 250.708 180.261 249.833 181.136C248.98 182.011 247.817 182.448 246.345 182.448C245.023 182.448 243.86 182.128 242.857 181.488C241.876 180.848 241.119 179.888 240.585 178.608C240.073 177.328 239.817 175.717 239.817 173.776C239.817 171.835 240.148 170.224 240.809 168.944C241.492 167.643 242.377 166.672 243.465 166.032C244.575 165.392 245.769 165.072 247.049 165.072ZM262.347 182.224C261.472 182.224 260.715 182.064 260.075 181.744C259.435 181.403 258.944 180.933 258.603 180.336C258.283 179.739 258.123 179.045 258.123 178.256C258.123 177.317 258.336 176.549 258.763 175.952C259.211 175.355 259.776 174.875 260.459 174.512C261.142 174.149 261.856 173.851 262.603 173.616C263.371 173.36 264.096 173.125 264.779 172.912C265.462 172.677 266.016 172.411 266.443 172.112C266.891 171.813 267.115 171.419 267.115 170.928V168.944C267.115 168.048 266.976 167.365 266.699 166.896C266.443 166.427 266.091 166.117 265.643 165.968C265.195 165.797 264.694 165.712 264.139 165.712C263.606 165.712 263.03 165.787 262.411 165.936C261.814 166.085 261.334 166.395 260.971 166.864C261.376 166.949 261.728 167.163 262.027 167.504C262.326 167.845 262.475 168.283 262.475 168.816C262.475 169.349 262.304 169.776 261.963 170.096C261.622 170.395 261.184 170.544 260.651 170.544C260.032 170.544 259.574 170.352 259.275 169.968C258.998 169.563 258.859 169.115 258.859 168.624C258.859 168.069 258.998 167.621 259.275 167.28C259.552 166.939 259.904 166.619 260.331 166.32C260.822 165.979 261.451 165.691 262.219 165.456C263.008 165.2 263.894 165.072 264.875 165.072C265.75 165.072 266.496 165.179 267.115 165.392C267.734 165.584 268.246 165.872 268.651 166.256C269.206 166.768 269.568 167.397 269.739 168.144C269.91 168.869 269.995 169.744 269.995 170.768V179.664C269.995 180.197 270.07 180.581 270.219 180.816C270.39 181.051 270.646 181.168 270.987 181.168C271.222 181.168 271.446 181.115 271.659 181.008C271.872 180.901 272.128 180.731 272.427 180.496L272.779 181.04C272.331 181.381 271.904 181.669 271.499 181.904C271.094 182.117 270.55 182.224 269.867 182.224C269.248 182.224 268.736 182.117 268.331 181.904C267.926 181.691 267.616 181.381 267.403 180.976C267.211 180.549 267.115 180.016 267.115 179.376C266.539 180.336 265.846 181.051 265.035 181.52C264.246 181.989 263.35 182.224 262.347 182.224ZM263.499 180.944C264.203 180.944 264.854 180.741 265.451 180.336C266.07 179.931 266.624 179.323 267.115 178.512V172.24C266.859 172.603 266.486 172.912 265.995 173.168C265.504 173.403 264.971 173.648 264.395 173.904C263.819 174.139 263.264 174.427 262.731 174.768C262.219 175.088 261.792 175.515 261.451 176.048C261.11 176.581 260.939 177.275 260.939 178.128C260.939 178.981 261.163 179.664 261.611 180.176C262.08 180.688 262.71 180.944 263.499 180.944ZM283.693 165.072C284.269 165.072 284.77 165.189 285.197 165.424C285.645 165.659 285.986 165.968 286.221 166.352C286.477 166.715 286.605 167.131 286.605 167.6C286.605 168.133 286.434 168.603 286.093 169.008C285.773 169.413 285.335 169.616 284.781 169.616C284.333 169.616 283.938 169.477 283.597 169.2C283.255 168.901 283.085 168.485 283.085 167.952C283.085 167.547 283.191 167.205 283.405 166.928C283.639 166.629 283.895 166.395 284.173 166.224C284.023 166.011 283.799 165.904 283.501 165.904C282.839 165.904 282.231 166.107 281.677 166.512C281.122 166.896 280.653 167.397 280.269 168.016C279.885 168.635 279.586 169.296 279.373 170C279.159 170.683 279.053 171.323 279.053 171.92V178.704C279.053 179.749 279.351 180.453 279.949 180.816C280.567 181.157 281.399 181.328 282.445 181.328V182C281.954 181.979 281.261 181.957 280.365 181.936C279.469 181.893 278.519 181.872 277.516 181.872C276.791 181.872 276.066 181.893 275.341 181.936C274.637 181.957 274.103 181.979 273.741 182V181.328C274.615 181.328 275.234 181.168 275.597 180.848C275.981 180.528 276.173 179.92 276.173 179.024V169.008C276.173 168.048 276.002 167.344 275.661 166.896C275.319 166.427 274.679 166.192 273.741 166.192V165.52C274.423 165.584 275.085 165.616 275.725 165.616C276.343 165.616 276.93 165.584 277.485 165.52C278.061 165.435 278.583 165.317 279.053 165.168V169.168C279.287 168.549 279.618 167.931 280.045 167.312C280.493 166.672 281.026 166.139 281.645 165.712C282.263 165.285 282.946 165.072 283.693 165.072ZM301.926 156.912V178.512C301.926 179.472 302.096 180.187 302.438 180.656C302.8 181.104 303.44 181.328 304.358 181.328V182C303.696 181.936 303.035 181.904 302.374 181.904C301.755 181.904 301.158 181.936 300.582 182C300.027 182.064 299.515 182.181 299.046 182.352V160.752C299.046 159.792 298.875 159.088 298.534 158.64C298.192 158.171 297.552 157.936 296.614 157.936V157.264C297.296 157.328 297.958 157.36 298.598 157.36C299.216 157.36 299.803 157.328 300.358 157.264C300.934 157.179 301.456 157.061 301.926 156.912ZM295.206 165.072C296.144 165.072 297.019 165.296 297.83 165.744C298.662 166.192 299.216 166.96 299.494 168.048L299.078 168.368C298.779 167.472 298.31 166.821 297.67 166.416C297.051 166.011 296.315 165.808 295.462 165.808C294.203 165.808 293.147 166.459 292.294 167.76C291.462 169.061 291.056 171.067 291.078 173.776C291.078 175.504 291.238 176.944 291.558 178.096C291.899 179.227 292.39 180.08 293.03 180.656C293.691 181.211 294.491 181.488 295.43 181.488C296.326 181.488 297.136 181.104 297.862 180.336C298.587 179.568 299.024 178.437 299.174 176.944L299.558 177.392C299.387 179.013 298.864 180.261 297.99 181.136C297.136 182.011 295.974 182.448 294.502 182.448C293.179 182.448 292.016 182.128 291.014 181.488C290.032 180.848 289.275 179.888 288.742 178.608C288.23 177.328 287.974 175.717 287.974 173.776C287.974 171.835 288.304 170.224 288.966 168.944C289.648 167.643 290.534 166.672 291.622 166.032C292.731 165.392 293.926 165.072 295.206 165.072Z" fill="#FF5A5F"/>
<path d="M112.644 194.504V194.744C112.492 194.776 112.328 194.868 112.152 195.02C111.984 195.172 111.832 195.428 111.696 195.788L108.876 203.06C108.86 203.06 108.844 203.06 108.828 203.06C108.812 203.06 108.796 203.06 108.78 203.06C108.764 203.06 108.748 203.06 108.732 203.06C108.716 203.06 108.7 203.06 108.684 203.06L105.756 195.512C105.636 195.208 105.5 195.008 105.348 194.912C105.196 194.808 105.056 194.752 104.928 194.744V194.504C105.088 194.512 105.284 194.52 105.516 194.528C105.756 194.536 105.988 194.54 106.212 194.54C106.524 194.54 106.816 194.536 107.088 194.528C107.36 194.52 107.58 194.512 107.748 194.504V194.744C107.476 194.752 107.268 194.784 107.124 194.84C106.988 194.896 106.912 194.996 106.896 195.14C106.888 195.276 106.936 195.48 107.04 195.752L109.272 201.668L109.08 201.872L111.168 196.448C111.336 196.016 111.416 195.68 111.408 195.44C111.4 195.192 111.308 195.016 111.132 194.912C110.956 194.808 110.7 194.752 110.364 194.744V194.504C110.596 194.512 110.832 194.52 111.072 194.528C111.312 194.536 111.536 194.54 111.744 194.54C111.952 194.54 112.124 194.536 112.26 194.528C112.396 194.52 112.524 194.512 112.644 194.504ZM113.935 193.82C114.143 193.82 114.323 193.896 114.475 194.048C114.627 194.2 114.703 194.38 114.703 194.588C114.703 194.796 114.627 194.976 114.475 195.128C114.323 195.28 114.143 195.356 113.935 195.356C113.727 195.356 113.547 195.28 113.395 195.128C113.243 194.976 113.167 194.796 113.167 194.588C113.167 194.38 113.243 194.2 113.395 194.048C113.547 193.896 113.727 193.82 113.935 193.82ZM114.559 196.688V201.884C114.559 202.22 114.627 202.448 114.763 202.568C114.907 202.688 115.143 202.748 115.471 202.748V203C115.335 202.992 115.127 202.984 114.847 202.976C114.575 202.96 114.299 202.952 114.019 202.952C113.747 202.952 113.471 202.96 113.191 202.976C112.911 202.984 112.703 202.992 112.567 203V202.748C112.895 202.748 113.127 202.688 113.263 202.568C113.407 202.448 113.479 202.22 113.479 201.884V198.128C113.479 197.768 113.415 197.504 113.287 197.336C113.159 197.16 112.919 197.072 112.567 197.072V196.82C112.823 196.844 113.071 196.856 113.311 196.856C113.543 196.856 113.763 196.844 113.971 196.82C114.187 196.788 114.383 196.744 114.559 196.688ZM120.775 203.084C120.447 203.084 120.163 203.024 119.923 202.904C119.683 202.776 119.499 202.6 119.371 202.376C119.251 202.152 119.191 201.892 119.191 201.596C119.191 201.244 119.271 200.956 119.431 200.732C119.599 200.508 119.811 200.328 120.067 200.192C120.323 200.056 120.591 199.944 120.871 199.856C121.159 199.76 121.431 199.672 121.687 199.592C121.943 199.504 122.151 199.404 122.311 199.292C122.479 199.18 122.563 199.032 122.563 198.848V198.104C122.563 197.768 122.511 197.512 122.407 197.336C122.311 197.16 122.179 197.044 122.011 196.988C121.843 196.924 121.655 196.892 121.447 196.892C121.247 196.892 121.031 196.92 120.799 196.976C120.575 197.032 120.395 197.148 120.259 197.324C120.411 197.356 120.543 197.436 120.655 197.564C120.767 197.692 120.823 197.856 120.823 198.056C120.823 198.256 120.759 198.416 120.631 198.536C120.503 198.648 120.339 198.704 120.139 198.704C119.907 198.704 119.735 198.632 119.623 198.488C119.519 198.336 119.467 198.168 119.467 197.984C119.467 197.776 119.519 197.608 119.623 197.48C119.727 197.352 119.859 197.232 120.019 197.12C120.203 196.992 120.439 196.884 120.727 196.796C121.023 196.7 121.355 196.652 121.723 196.652C122.051 196.652 122.331 196.692 122.563 196.772C122.795 196.844 122.987 196.952 123.139 197.096C123.347 197.288 123.483 197.524 123.547 197.804C123.611 198.076 123.643 198.404 123.643 198.788V202.124C123.643 202.324 123.671 202.468 123.727 202.556C123.791 202.644 123.887 202.688 124.015 202.688C124.103 202.688 124.187 202.668 124.267 202.628C124.347 202.588 124.443 202.524 124.555 202.436L124.687 202.64C124.519 202.768 124.359 202.876 124.207 202.964C124.055 203.044 123.851 203.084 123.595 203.084C123.363 203.084 123.171 203.044 123.019 202.964C122.867 202.884 122.751 202.768 122.671 202.616C122.599 202.456 122.563 202.256 122.563 202.016C122.347 202.376 122.087 202.644 121.783 202.82C121.487 202.996 121.151 203.084 120.775 203.084ZM121.207 202.604C121.471 202.604 121.715 202.528 121.939 202.376C122.171 202.224 122.379 201.996 122.563 201.692V199.34C122.467 199.476 122.327 199.592 122.143 199.688C121.959 199.776 121.759 199.868 121.543 199.964C121.327 200.052 121.119 200.16 120.919 200.288C120.727 200.408 120.567 200.568 120.439 200.768C120.311 200.968 120.247 201.228 120.247 201.548C120.247 201.868 120.331 202.124 120.499 202.316C120.675 202.508 120.911 202.604 121.207 202.604ZM130.507 193.592V201.692C130.507 202.052 130.571 202.32 130.699 202.496C130.835 202.664 131.075 202.748 131.419 202.748V203C131.171 202.976 130.923 202.964 130.675 202.964C130.443 202.964 130.219 202.976 130.003 203C129.795 203.024 129.603 203.068 129.427 203.132V195.032C129.427 194.672 129.363 194.408 129.235 194.24C129.107 194.064 128.867 193.976 128.515 193.976V193.724C128.771 193.748 129.019 193.76 129.259 193.76C129.491 193.76 129.711 193.748 129.919 193.724C130.135 193.692 130.331 193.648 130.507 193.592ZM127.987 196.652C128.339 196.652 128.667 196.736 128.971 196.904C129.283 197.072 129.491 197.36 129.595 197.768L129.439 197.888C129.327 197.552 129.151 197.308 128.911 197.156C128.679 197.004 128.403 196.928 128.083 196.928C127.611 196.928 127.215 197.172 126.895 197.66C126.583 198.148 126.431 198.9 126.439 199.916C126.439 200.564 126.499 201.104 126.619 201.536C126.747 201.96 126.931 202.28 127.171 202.496C127.419 202.704 127.719 202.808 128.071 202.808C128.407 202.808 128.711 202.664 128.983 202.376C129.255 202.088 129.419 201.664 129.475 201.104L129.619 201.272C129.555 201.88 129.359 202.348 129.031 202.676C128.711 203.004 128.275 203.168 127.723 203.168C127.227 203.168 126.791 203.048 126.415 202.808C126.047 202.568 125.763 202.208 125.563 201.728C125.371 201.248 125.275 200.644 125.275 199.916C125.275 199.188 125.399 198.584 125.647 198.104C125.903 197.616 126.235 197.252 126.643 197.012C127.059 196.772 127.507 196.652 127.987 196.652ZM135.98 196.652C136.26 196.652 136.504 196.692 136.712 196.772C136.92 196.852 137.092 196.964 137.228 197.108C137.38 197.268 137.484 197.476 137.54 197.732C137.596 197.988 137.624 198.304 137.624 198.68V201.884C137.624 202.22 137.692 202.448 137.828 202.568C137.972 202.688 138.208 202.748 138.536 202.748V203C138.4 202.992 138.192 202.984 137.912 202.976C137.632 202.96 137.36 202.952 137.096 202.952C136.832 202.952 136.572 202.96 136.316 202.976C136.068 202.984 135.88 202.992 135.752 203V202.748C136.04 202.748 136.244 202.688 136.364 202.568C136.484 202.448 136.544 202.22 136.544 201.884V198.416C136.544 198.168 136.528 197.94 136.496 197.732C136.464 197.524 136.384 197.356 136.256 197.228C136.128 197.1 135.92 197.036 135.632 197.036C135.32 197.036 135.04 197.132 134.792 197.324C134.552 197.516 134.36 197.78 134.216 198.116C134.08 198.444 134.012 198.812 134.012 199.22V201.884C134.012 202.22 134.072 202.448 134.192 202.568C134.312 202.688 134.516 202.748 134.804 202.748V203C134.676 202.992 134.484 202.984 134.228 202.976C133.98 202.96 133.724 202.952 133.46 202.952C133.196 202.952 132.924 202.96 132.644 202.976C132.364 202.984 132.156 202.992 132.02 203V202.748C132.348 202.748 132.58 202.688 132.716 202.568C132.86 202.448 132.932 202.22 132.932 201.884V198.128C132.932 197.768 132.868 197.504 132.74 197.336C132.612 197.16 132.372 197.072 132.02 197.072V196.82C132.276 196.844 132.524 196.856 132.764 196.856C132.996 196.856 133.216 196.844 133.424 196.82C133.64 196.788 133.836 196.744 134.012 196.688V198.104C134.22 197.584 134.504 197.212 134.864 196.988C135.224 196.764 135.596 196.652 135.98 196.652ZM139.592 196.652C139.872 196.652 140.116 196.692 140.324 196.772C140.532 196.852 140.704 196.964 140.84 197.108C140.992 197.268 141.096 197.476 141.152 197.732C141.208 197.988 141.236 198.304 141.236 198.68V201.884C141.236 202.22 141.304 202.448 141.44 202.568C141.584 202.688 141.82 202.748 142.148 202.748V203C142.012 202.992 141.804 202.984 141.524 202.976C141.244 202.96 140.972 202.952 140.708 202.952C140.444 202.952 140.184 202.96 139.928 202.976C139.68 202.984 139.492 202.992 139.364 203V202.748C139.652 202.748 139.856 202.688 139.976 202.568C140.096 202.448 140.156 202.22 140.156 201.884V198.416C140.156 198.168 140.14 197.94 140.108 197.732C140.076 197.524 139.996 197.356 139.868 197.228C139.74 197.1 139.532 197.036 139.244 197.036C138.932 197.036 138.652 197.132 138.404 197.324C138.164 197.516 137.972 197.776 137.828 198.104C137.692 198.432 137.624 198.8 137.624 199.208L137.588 198.092C137.804 197.54 138.096 197.164 138.464 196.964C138.832 196.756 139.208 196.652 139.592 196.652ZM144.04 193.82C144.248 193.82 144.428 193.896 144.58 194.048C144.732 194.2 144.808 194.38 144.808 194.588C144.808 194.796 144.732 194.976 144.58 195.128C144.428 195.28 144.248 195.356 144.04 195.356C143.832 195.356 143.652 195.28 143.5 195.128C143.348 194.976 143.272 194.796 143.272 194.588C143.272 194.38 143.348 194.2 143.5 194.048C143.652 193.896 143.832 193.82 144.04 193.82ZM144.664 196.688V201.884C144.664 202.22 144.732 202.448 144.868 202.568C145.012 202.688 145.248 202.748 145.576 202.748V203C145.44 202.992 145.232 202.984 144.952 202.976C144.68 202.96 144.404 202.952 144.124 202.952C143.852 202.952 143.576 202.96 143.296 202.976C143.016 202.984 142.808 202.992 142.672 203V202.748C143 202.748 143.232 202.688 143.368 202.568C143.512 202.448 143.584 202.22 143.584 201.884V198.128C143.584 197.768 143.52 197.504 143.392 197.336C143.264 197.16 143.024 197.072 142.672 197.072V196.82C142.928 196.844 143.176 196.856 143.416 196.856C143.648 196.856 143.868 196.844 144.076 196.82C144.292 196.788 144.488 196.744 144.664 196.688ZM150.22 196.652C150.524 196.652 150.776 196.692 150.976 196.772C151.184 196.852 151.356 196.964 151.492 197.108C151.644 197.268 151.752 197.468 151.816 197.708C151.88 197.948 151.912 198.272 151.912 198.68V201.884C151.912 202.22 151.98 202.448 152.116 202.568C152.26 202.688 152.496 202.748 152.824 202.748V203C152.688 202.992 152.48 202.984 152.2 202.976C151.92 202.96 151.648 202.952 151.384 202.952C151.12 202.952 150.86 202.96 150.604 202.976C150.356 202.984 150.168 202.992 150.04 203V202.748C150.328 202.748 150.532 202.688 150.652 202.568C150.772 202.448 150.832 202.22 150.832 201.884V198.416C150.832 198.168 150.812 197.94 150.772 197.732C150.732 197.524 150.64 197.356 150.496 197.228C150.36 197.1 150.148 197.036 149.86 197.036C149.524 197.036 149.228 197.132 148.972 197.324C148.724 197.516 148.528 197.78 148.384 198.116C148.248 198.444 148.18 198.812 148.18 199.22V201.884C148.18 202.22 148.24 202.448 148.36 202.568C148.48 202.688 148.684 202.748 148.972 202.748V203C148.844 202.992 148.652 202.984 148.396 202.976C148.148 202.96 147.892 202.952 147.628 202.952C147.364 202.952 147.092 202.96 146.812 202.976C146.532 202.984 146.324 202.992 146.188 203V202.748C146.516 202.748 146.748 202.688 146.884 202.568C147.028 202.448 147.1 202.22 147.1 201.884V198.128C147.1 197.768 147.036 197.504 146.908 197.336C146.78 197.16 146.54 197.072 146.188 197.072V196.82C146.444 196.844 146.692 196.856 146.932 196.856C147.164 196.856 147.384 196.844 147.592 196.82C147.808 196.788 148.004 196.744 148.18 196.688V198.104C148.388 197.56 148.676 197.184 149.044 196.976C149.42 196.76 149.812 196.652 150.22 196.652ZM154.716 193.82C154.924 193.82 155.104 193.896 155.256 194.048C155.408 194.2 155.484 194.38 155.484 194.588C155.484 194.796 155.408 194.976 155.256 195.128C155.104 195.28 154.924 195.356 154.716 195.356C154.508 195.356 154.328 195.28 154.176 195.128C154.024 194.976 153.948 194.796 153.948 194.588C153.948 194.38 154.024 194.2 154.176 194.048C154.328 193.896 154.508 193.82 154.716 193.82ZM155.34 196.688V201.884C155.34 202.22 155.408 202.448 155.544 202.568C155.688 202.688 155.924 202.748 156.252 202.748V203C156.116 202.992 155.908 202.984 155.628 202.976C155.356 202.96 155.08 202.952 154.8 202.952C154.528 202.952 154.252 202.96 153.972 202.976C153.692 202.984 153.484 202.992 153.348 203V202.748C153.676 202.748 153.908 202.688 154.044 202.568C154.188 202.448 154.26 202.22 154.26 201.884V198.128C154.26 197.768 154.196 197.504 154.068 197.336C153.94 197.16 153.7 197.072 153.348 197.072V196.82C153.604 196.844 153.852 196.856 154.092 196.856C154.324 196.856 154.544 196.844 154.752 196.82C154.968 196.788 155.164 196.744 155.34 196.688ZM159.012 196.652C159.332 196.652 159.604 196.704 159.828 196.808C160.052 196.912 160.216 197.008 160.32 197.096C160.584 197.312 160.744 197.168 160.8 196.664H161.076C161.06 196.888 161.048 197.156 161.04 197.468C161.032 197.772 161.028 198.184 161.028 198.704H160.752C160.704 198.408 160.62 198.12 160.5 197.84C160.388 197.56 160.22 197.332 159.996 197.156C159.772 196.972 159.48 196.88 159.12 196.88C158.84 196.88 158.604 196.96 158.412 197.12C158.228 197.272 158.136 197.5 158.136 197.804C158.136 198.044 158.208 198.252 158.352 198.428C158.496 198.596 158.684 198.756 158.916 198.908C159.148 199.052 159.4 199.212 159.672 199.388C159.976 199.58 160.252 199.776 160.5 199.976C160.748 200.176 160.944 200.396 161.088 200.636C161.24 200.876 161.316 201.16 161.316 201.488C161.316 201.856 161.22 202.164 161.028 202.412C160.836 202.66 160.584 202.848 160.272 202.976C159.968 203.104 159.632 203.168 159.264 203.168C159.088 203.168 158.92 203.152 158.76 203.12C158.608 203.096 158.46 203.056 158.316 203C158.236 202.96 158.152 202.912 158.064 202.856C157.984 202.8 157.904 202.74 157.824 202.676C157.744 202.612 157.672 202.616 157.608 202.688C157.544 202.752 157.496 202.884 157.464 203.084H157.188C157.204 202.828 157.216 202.516 157.224 202.148C157.232 201.78 157.236 201.292 157.236 200.684H157.512C157.568 201.132 157.648 201.524 157.752 201.86C157.856 202.196 158.02 202.46 158.244 202.652C158.468 202.836 158.78 202.928 159.18 202.928C159.34 202.928 159.5 202.892 159.66 202.82C159.828 202.748 159.968 202.628 160.08 202.46C160.192 202.292 160.248 202.068 160.248 201.788C160.248 201.436 160.12 201.148 159.864 200.924C159.608 200.7 159.284 200.464 158.892 200.216C158.604 200.032 158.332 199.848 158.076 199.664C157.828 199.48 157.624 199.272 157.464 199.04C157.312 198.808 157.236 198.528 157.236 198.2C157.236 197.84 157.316 197.548 157.476 197.324C157.644 197.092 157.864 196.924 158.136 196.82C158.408 196.708 158.7 196.652 159.012 196.652ZM164.163 194.828V196.832H165.939V197.072H164.163V201.716C164.163 202.092 164.231 202.356 164.367 202.508C164.503 202.66 164.691 202.736 164.931 202.736C165.171 202.736 165.379 202.64 165.555 202.448C165.731 202.248 165.883 201.916 166.011 201.452L166.251 201.512C166.171 201.976 166.011 202.368 165.771 202.688C165.539 203.008 165.179 203.168 164.691 203.168C164.419 203.168 164.195 203.132 164.019 203.06C163.843 202.996 163.687 202.9 163.551 202.772C163.375 202.588 163.251 202.368 163.179 202.112C163.115 201.856 163.083 201.516 163.083 201.092V197.072H161.931V196.832H163.083V194.996C163.283 194.988 163.475 194.972 163.659 194.948C163.843 194.924 164.011 194.884 164.163 194.828ZM170.205 196.652C170.421 196.652 170.609 196.696 170.769 196.784C170.937 196.872 171.065 196.988 171.153 197.132C171.249 197.268 171.297 197.424 171.297 197.6C171.297 197.8 171.233 197.976 171.105 198.128C170.985 198.28 170.821 198.356 170.613 198.356C170.445 198.356 170.297 198.304 170.169 198.2C170.041 198.088 169.977 197.932 169.977 197.732C169.977 197.58 170.017 197.452 170.097 197.348C170.185 197.236 170.281 197.148 170.385 197.084C170.329 197.004 170.245 196.964 170.133 196.964C169.885 196.964 169.657 197.04 169.449 197.192C169.241 197.336 169.065 197.524 168.921 197.756C168.777 197.988 168.665 198.236 168.585 198.5C168.505 198.756 168.465 198.996 168.465 199.22V201.764C168.465 202.156 168.577 202.42 168.801 202.556C169.033 202.684 169.345 202.748 169.737 202.748V203C169.553 202.992 169.293 202.984 168.957 202.976C168.621 202.96 168.265 202.952 167.889 202.952C167.617 202.952 167.345 202.96 167.073 202.976C166.809 202.984 166.609 202.992 166.473 203V202.748C166.801 202.748 167.033 202.688 167.169 202.568C167.313 202.448 167.385 202.22 167.385 201.884V198.128C167.385 197.768 167.321 197.504 167.193 197.336C167.065 197.16 166.825 197.072 166.473 197.072V196.82C166.729 196.844 166.977 196.856 167.217 196.856C167.449 196.856 167.669 196.844 167.877 196.82C168.093 196.788 168.289 196.744 168.465 196.688V198.188C168.553 197.956 168.677 197.724 168.837 197.492C169.005 197.252 169.205 197.052 169.437 196.892C169.669 196.732 169.925 196.652 170.205 196.652ZM174.498 196.652C175.202 196.652 175.75 196.868 176.142 197.3C176.542 197.724 176.742 198.388 176.742 199.292H172.506L172.494 199.064H175.59C175.606 198.672 175.574 198.312 175.494 197.984C175.414 197.648 175.286 197.38 175.11 197.18C174.942 196.98 174.722 196.88 174.45 196.88C174.082 196.88 173.754 197.064 173.466 197.432C173.186 197.8 173.018 198.384 172.962 199.184L172.998 199.232C172.982 199.352 172.97 199.484 172.962 199.628C172.954 199.772 172.95 199.916 172.95 200.06C172.95 200.604 173.038 201.072 173.214 201.464C173.39 201.856 173.618 202.156 173.898 202.364C174.186 202.564 174.482 202.664 174.786 202.664C175.026 202.664 175.254 202.628 175.47 202.556C175.686 202.476 175.886 202.348 176.07 202.172C176.254 201.996 176.414 201.76 176.55 201.464L176.79 201.56C176.702 201.824 176.558 202.08 176.358 202.328C176.158 202.576 175.906 202.78 175.602 202.94C175.298 203.092 174.946 203.168 174.546 203.168C173.97 203.168 173.474 203.036 173.058 202.772C172.65 202.508 172.334 202.144 172.11 201.68C171.894 201.208 171.786 200.668 171.786 200.06C171.786 199.356 171.898 198.752 172.122 198.248C172.346 197.736 172.662 197.344 173.07 197.072C173.478 196.792 173.954 196.652 174.498 196.652ZM181.385 196.652C181.601 196.652 181.789 196.696 181.949 196.784C182.117 196.872 182.245 196.988 182.333 197.132C182.429 197.268 182.477 197.424 182.477 197.6C182.477 197.8 182.413 197.976 182.285 198.128C182.165 198.28 182.001 198.356 181.793 198.356C181.625 198.356 181.477 198.304 181.349 198.2C181.221 198.088 181.157 197.932 181.157 197.732C181.157 197.58 181.197 197.452 181.277 197.348C181.365 197.236 181.461 197.148 181.565 197.084C181.509 197.004 181.425 196.964 181.313 196.964C181.065 196.964 180.837 197.04 180.629 197.192C180.421 197.336 180.245 197.524 180.101 197.756C179.957 197.988 179.845 198.236 179.765 198.5C179.685 198.756 179.645 198.996 179.645 199.22V201.764C179.645 202.156 179.757 202.42 179.981 202.556C180.213 202.684 180.525 202.748 180.917 202.748V203C180.733 202.992 180.473 202.984 180.137 202.976C179.801 202.96 179.445 202.952 179.069 202.952C178.797 202.952 178.525 202.96 178.253 202.976C177.989 202.984 177.789 202.992 177.653 203V202.748C177.981 202.748 178.213 202.688 178.349 202.568C178.493 202.448 178.565 202.22 178.565 201.884V198.128C178.565 197.768 178.501 197.504 178.373 197.336C178.245 197.16 178.005 197.072 177.653 197.072V196.82C177.909 196.844 178.157 196.856 178.397 196.856C178.629 196.856 178.849 196.844 179.057 196.82C179.273 196.788 179.469 196.744 179.645 196.688V198.188C179.733 197.956 179.857 197.724 180.017 197.492C180.185 197.252 180.385 197.052 180.617 196.892C180.849 196.732 181.105 196.652 181.385 196.652ZM185.678 196.652C186.382 196.652 186.93 196.868 187.322 197.3C187.722 197.724 187.922 198.388 187.922 199.292H183.686L183.674 199.064H186.77C186.786 198.672 186.754 198.312 186.674 197.984C186.594 197.648 186.466 197.38 186.29 197.18C186.122 196.98 185.902 196.88 185.63 196.88C185.262 196.88 184.934 197.064 184.646 197.432C184.366 197.8 184.198 198.384 184.142 199.184L184.178 199.232C184.162 199.352 184.15 199.484 184.142 199.628C184.134 199.772 184.13 199.916 184.13 200.06C184.13 200.604 184.218 201.072 184.394 201.464C184.57 201.856 184.798 202.156 185.078 202.364C185.366 202.564 185.662 202.664 185.966 202.664C186.206 202.664 186.434 202.628 186.65 202.556C186.866 202.476 187.066 202.348 187.25 202.172C187.434 201.996 187.594 201.76 187.73 201.464L187.97 201.56C187.882 201.824 187.738 202.08 187.538 202.328C187.338 202.576 187.086 202.78 186.782 202.94C186.478 203.092 186.126 203.168 185.726 203.168C185.15 203.168 184.654 203.036 184.238 202.772C183.83 202.508 183.514 202.144 183.29 201.68C183.074 201.208 182.966 200.668 182.966 200.06C182.966 199.356 183.078 198.752 183.302 198.248C183.526 197.736 183.842 197.344 184.25 197.072C184.658 196.792 185.134 196.652 185.678 196.652ZM192.564 196.652C192.78 196.652 192.968 196.696 193.128 196.784C193.296 196.872 193.424 196.988 193.512 197.132C193.608 197.268 193.656 197.424 193.656 197.6C193.656 197.8 193.592 197.976 193.464 198.128C193.344 198.28 193.18 198.356 192.972 198.356C192.804 198.356 192.656 198.304 192.528 198.2C192.4 198.088 192.336 197.932 192.336 197.732C192.336 197.58 192.376 197.452 192.456 197.348C192.544 197.236 192.64 197.148 192.744 197.084C192.688 197.004 192.604 196.964 192.492 196.964C192.244 196.964 192.016 197.04 191.808 197.192C191.6 197.336 191.424 197.524 191.28 197.756C191.136 197.988 191.024 198.236 190.944 198.5C190.864 198.756 190.824 198.996 190.824 199.22V201.764C190.824 202.156 190.936 202.42 191.16 202.556C191.392 202.684 191.704 202.748 192.096 202.748V203C191.912 202.992 191.652 202.984 191.316 202.976C190.98 202.96 190.624 202.952 190.248 202.952C189.976 202.952 189.704 202.96 189.432 202.976C189.168 202.984 188.968 202.992 188.832 203V202.748C189.16 202.748 189.392 202.688 189.528 202.568C189.672 202.448 189.744 202.22 189.744 201.884V198.128C189.744 197.768 189.68 197.504 189.552 197.336C189.424 197.16 189.184 197.072 188.832 197.072V196.82C189.088 196.844 189.336 196.856 189.576 196.856C189.808 196.856 190.028 196.844 190.236 196.82C190.452 196.788 190.648 196.744 190.824 196.688V198.188C190.912 197.956 191.036 197.724 191.196 197.492C191.364 197.252 191.564 197.052 191.796 196.892C192.028 196.732 192.284 196.652 192.564 196.652ZM202.355 196.688V201.704C202.355 202.064 202.419 202.332 202.547 202.508C202.683 202.676 202.923 202.76 203.267 202.76V203.012C203.019 202.988 202.771 202.976 202.523 202.976C202.291 202.976 202.067 202.988 201.851 203.012C201.643 203.036 201.451 203.08 201.275 203.144V201.728C201.075 202.248 200.791 202.62 200.423 202.844C200.063 203.06 199.691 203.168 199.307 203.168C199.027 203.168 198.783 203.128 198.575 203.048C198.367 202.968 198.195 202.856 198.059 202.712C197.907 202.552 197.803 202.344 197.747 202.088C197.691 201.832 197.663 201.516 197.663 201.14V198.128C197.663 197.768 197.599 197.504 197.471 197.336C197.343 197.16 197.103 197.072 196.751 197.072V196.82C197.007 196.844 197.255 196.856 197.495 196.856C197.727 196.856 197.947 196.844 198.155 196.82C198.371 196.788 198.567 196.744 198.743 196.688V201.404C198.743 201.652 198.759 201.88 198.791 202.088C198.823 202.296 198.903 202.464 199.031 202.592C199.159 202.72 199.367 202.784 199.655 202.784C199.967 202.784 200.243 202.688 200.483 202.496C200.731 202.304 200.923 202.044 201.059 201.716C201.203 201.388 201.275 201.02 201.275 200.612V198.128C201.275 197.768 201.211 197.504 201.083 197.336C200.955 197.16 200.715 197.072 200.363 197.072V196.82C200.619 196.844 200.867 196.856 201.107 196.856C201.339 196.856 201.559 196.844 201.767 196.82C201.983 196.788 202.179 196.744 202.355 196.688ZM205.811 194.828V196.832H207.587V197.072H205.811V201.716C205.811 202.092 205.879 202.356 206.015 202.508C206.151 202.66 206.339 202.736 206.579 202.736C206.819 202.736 207.027 202.64 207.203 202.448C207.379 202.248 207.531 201.916 207.659 201.452L207.899 201.512C207.819 201.976 207.659 202.368 207.419 202.688C207.187 203.008 206.827 203.168 206.339 203.168C206.067 203.168 205.843 203.132 205.667 203.06C205.491 202.996 205.335 202.9 205.199 202.772C205.023 202.588 204.899 202.368 204.827 202.112C204.763 201.856 204.731 201.516 204.731 201.092V197.072H203.579V196.832H204.731V194.996C204.931 194.988 205.123 194.972 205.307 194.948C205.491 194.924 205.659 194.884 205.811 194.828ZM210.029 193.592V201.884C210.029 202.22 210.097 202.448 210.233 202.568C210.377 202.688 210.613 202.748 210.941 202.748V203C210.805 202.992 210.597 202.984 210.317 202.976C210.045 202.96 209.769 202.952 209.489 202.952C209.217 202.952 208.941 202.96 208.661 202.976C208.381 202.984 208.173 202.992 208.037 203V202.748C208.365 202.748 208.597 202.688 208.733 202.568C208.877 202.448 208.949 202.22 208.949 201.884V195.032C208.949 194.672 208.885 194.408 208.757 194.24C208.629 194.064 208.389 193.976 208.037 193.976V193.724C208.293 193.748 208.541 193.76 208.781 193.76C209.013 193.76 209.233 193.748 209.441 193.724C209.657 193.692 209.853 193.648 210.029 193.592ZM214.354 196.652C215.058 196.652 215.606 196.868 215.998 197.3C216.398 197.724 216.598 198.388 216.598 199.292H212.362L212.35 199.064H215.446C215.462 198.672 215.43 198.312 215.35 197.984C215.27 197.648 215.142 197.38 214.966 197.18C214.798 196.98 214.578 196.88 214.306 196.88C213.938 196.88 213.61 197.064 213.322 197.432C213.042 197.8 212.874 198.384 212.818 199.184L212.854 199.232C212.838 199.352 212.826 199.484 212.818 199.628C212.81 199.772 212.806 199.916 212.806 200.06C212.806 200.604 212.894 201.072 213.07 201.464C213.246 201.856 213.474 202.156 213.754 202.364C214.042 202.564 214.338 202.664 214.642 202.664C214.882 202.664 215.11 202.628 215.326 202.556C215.542 202.476 215.742 202.348 215.926 202.172C216.11 201.996 216.27 201.76 216.406 201.464L216.646 201.56C216.558 201.824 216.414 202.08 216.214 202.328C216.014 202.576 215.762 202.78 215.458 202.94C215.154 203.092 214.802 203.168 214.402 203.168C213.826 203.168 213.33 203.036 212.914 202.772C212.506 202.508 212.19 202.144 211.966 201.68C211.75 201.208 211.642 200.668 211.642 200.06C211.642 199.356 211.754 198.752 211.978 198.248C212.202 197.736 212.518 197.344 212.926 197.072C213.334 196.792 213.81 196.652 214.354 196.652ZM218.876 193.82C219.084 193.82 219.264 193.896 219.416 194.048C219.568 194.2 219.644 194.38 219.644 194.588C219.644 194.796 219.568 194.976 219.416 195.128C219.264 195.28 219.084 195.356 218.876 195.356C218.668 195.356 218.488 195.28 218.336 195.128C218.184 194.976 218.108 194.796 218.108 194.588C218.108 194.38 218.184 194.2 218.336 194.048C218.488 193.896 218.668 193.82 218.876 193.82ZM219.5 196.688V201.884C219.5 202.22 219.568 202.448 219.704 202.568C219.848 202.688 220.084 202.748 220.412 202.748V203C220.276 202.992 220.068 202.984 219.788 202.976C219.516 202.96 219.24 202.952 218.96 202.952C218.688 202.952 218.412 202.96 218.132 202.976C217.852 202.984 217.644 202.992 217.508 203V202.748C217.836 202.748 218.068 202.688 218.204 202.568C218.348 202.448 218.42 202.22 218.42 201.884V198.128C218.42 197.768 218.356 197.504 218.228 197.336C218.1 197.16 217.86 197.072 217.508 197.072V196.82C217.764 196.844 218.012 196.856 218.252 196.856C218.484 196.856 218.704 196.844 218.912 196.82C219.128 196.788 219.324 196.744 219.5 196.688ZM223.94 196.652C224.644 196.652 225.192 196.868 225.584 197.3C225.984 197.724 226.184 198.388 226.184 199.292H221.948L221.936 199.064H225.032C225.048 198.672 225.016 198.312 224.936 197.984C224.856 197.648 224.728 197.38 224.552 197.18C224.384 196.98 224.164 196.88 223.892 196.88C223.524 196.88 223.196 197.064 222.908 197.432C222.628 197.8 222.46 198.384 222.404 199.184L222.44 199.232C222.424 199.352 222.412 199.484 222.404 199.628C222.396 199.772 222.392 199.916 222.392 200.06C222.392 200.604 222.48 201.072 222.656 201.464C222.832 201.856 223.06 202.156 223.34 202.364C223.628 202.564 223.924 202.664 224.228 202.664C224.468 202.664 224.696 202.628 224.912 202.556C225.128 202.476 225.328 202.348 225.512 202.172C225.696 201.996 225.856 201.76 225.992 201.464L226.232 201.56C226.144 201.824 226 202.08 225.8 202.328C225.6 202.576 225.348 202.78 225.044 202.94C224.74 203.092 224.388 203.168 223.988 203.168C223.412 203.168 222.916 203.036 222.5 202.772C222.092 202.508 221.776 202.144 221.552 201.68C221.336 201.208 221.228 200.668 221.228 200.06C221.228 199.356 221.34 198.752 221.564 198.248C221.788 197.736 222.104 197.344 222.512 197.072C222.92 196.792 223.396 196.652 223.94 196.652ZM231.126 196.652C231.43 196.652 231.682 196.692 231.882 196.772C232.09 196.852 232.262 196.964 232.398 197.108C232.55 197.268 232.658 197.468 232.722 197.708C232.786 197.948 232.818 198.272 232.818 198.68V201.884C232.818 202.22 232.886 202.448 233.022 202.568C233.166 202.688 233.402 202.748 233.73 202.748V203C233.594 202.992 233.386 202.984 233.106 202.976C232.826 202.96 232.554 202.952 232.29 202.952C232.026 202.952 231.766 202.96 231.51 202.976C231.262 202.984 231.074 202.992 230.946 203V202.748C231.234 202.748 231.438 202.688 231.558 202.568C231.678 202.448 231.738 202.22 231.738 201.884V198.416C231.738 198.168 231.718 197.94 231.678 197.732C231.638 197.524 231.546 197.356 231.402 197.228C231.266 197.1 231.054 197.036 230.766 197.036C230.43 197.036 230.134 197.132 229.878 197.324C229.63 197.516 229.434 197.78 229.29 198.116C229.154 198.444 229.086 198.812 229.086 199.22V201.884C229.086 202.22 229.146 202.448 229.266 202.568C229.386 202.688 229.59 202.748 229.878 202.748V203C229.75 202.992 229.558 202.984 229.302 202.976C229.054 202.96 228.798 202.952 228.534 202.952C228.27 202.952 227.998 202.96 227.718 202.976C227.438 202.984 227.23 202.992 227.094 203V202.748C227.422 202.748 227.654 202.688 227.79 202.568C227.934 202.448 228.006 202.22 228.006 201.884V198.128C228.006 197.768 227.942 197.504 227.814 197.336C227.686 197.16 227.446 197.072 227.094 197.072V196.82C227.35 196.844 227.598 196.856 227.838 196.856C228.07 196.856 228.29 196.844 228.498 196.82C228.714 196.788 228.91 196.744 229.086 196.688V198.104C229.294 197.56 229.582 197.184 229.95 196.976C230.326 196.76 230.718 196.652 231.126 196.652ZM242.703 193.592V201.692C242.703 202.052 242.767 202.32 242.895 202.496C243.031 202.664 243.271 202.748 243.615 202.748V203C243.367 202.976 243.119 202.964 242.871 202.964C242.639 202.964 242.415 202.976 242.199 203C241.991 203.024 241.799 203.068 241.623 203.132V195.032C241.623 194.672 241.559 194.408 241.431 194.24C241.303 194.064 241.063 193.976 240.711 193.976V193.724C240.967 193.748 241.215 193.76 241.455 193.76C241.687 193.76 241.907 193.748 242.115 193.724C242.331 193.692 242.527 193.648 242.703 193.592ZM240.183 196.652C240.535 196.652 240.863 196.736 241.167 196.904C241.479 197.072 241.687 197.36 241.791 197.768L241.635 197.888C241.523 197.552 241.347 197.308 241.107 197.156C240.875 197.004 240.599 196.928 240.279 196.928C239.807 196.928 239.411 197.172 239.091 197.66C238.779 198.148 238.627 198.9 238.635 199.916C238.635 200.564 238.695 201.104 238.815 201.536C238.943 201.96 239.127 202.28 239.367 202.496C239.615 202.704 239.915 202.808 240.267 202.808C240.603 202.808 240.907 202.664 241.179 202.376C241.451 202.088 241.615 201.664 241.671 201.104L241.815 201.272C241.751 201.88 241.555 202.348 241.227 202.676C240.907 203.004 240.471 203.168 239.919 203.168C239.423 203.168 238.987 203.048 238.611 202.808C238.243 202.568 237.959 202.208 237.759 201.728C237.567 201.248 237.471 200.644 237.471 199.916C237.471 199.188 237.595 198.584 237.843 198.104C238.099 197.616 238.431 197.252 238.839 197.012C239.255 196.772 239.703 196.652 240.183 196.652ZM245.583 193.82C245.791 193.82 245.971 193.896 246.123 194.048C246.275 194.2 246.351 194.38 246.351 194.588C246.351 194.796 246.275 194.976 246.123 195.128C245.971 195.28 245.791 195.356 245.583 195.356C245.375 195.356 245.195 195.28 245.043 195.128C244.891 194.976 244.815 194.796 244.815 194.588C244.815 194.38 244.891 194.2 245.043 194.048C245.195 193.896 245.375 193.82 245.583 193.82ZM246.207 196.688V201.884C246.207 202.22 246.275 202.448 246.411 202.568C246.555 202.688 246.791 202.748 247.119 202.748V203C246.983 202.992 246.775 202.984 246.495 202.976C246.223 202.96 245.947 202.952 245.667 202.952C245.395 202.952 245.119 202.96 244.839 202.976C244.559 202.984 244.351 202.992 244.215 203V202.748C244.543 202.748 244.775 202.688 244.911 202.568C245.055 202.448 245.127 202.22 245.127 201.884V198.128C245.127 197.768 245.063 197.504 244.935 197.336C244.807 197.16 244.567 197.072 244.215 197.072V196.82C244.471 196.844 244.719 196.856 244.959 196.856C245.191 196.856 245.411 196.844 245.619 196.82C245.835 196.788 246.031 196.744 246.207 196.688ZM251.763 196.652C252.067 196.652 252.319 196.692 252.519 196.772C252.727 196.852 252.899 196.964 253.035 197.108C253.187 197.268 253.295 197.468 253.359 197.708C253.423 197.948 253.455 198.272 253.455 198.68V201.884C253.455 202.22 253.523 202.448 253.659 202.568C253.803 202.688 254.039 202.748 254.367 202.748V203C254.231 202.992 254.023 202.984 253.743 202.976C253.463 202.96 253.191 202.952 252.927 202.952C252.663 202.952 252.403 202.96 252.147 202.976C251.899 202.984 251.711 202.992 251.583 203V202.748C251.871 202.748 252.075 202.688 252.195 202.568C252.315 202.448 252.375 202.22 252.375 201.884V198.416C252.375 198.168 252.355 197.94 252.315 197.732C252.275 197.524 252.183 197.356 252.039 197.228C251.903 197.1 251.691 197.036 251.403 197.036C251.067 197.036 250.771 197.132 250.515 197.324C250.267 197.516 250.071 197.78 249.927 198.116C249.791 198.444 249.723 198.812 249.723 199.22V201.884C249.723 202.22 249.783 202.448 249.903 202.568C250.023 202.688 250.227 202.748 250.515 202.748V203C250.387 202.992 250.195 202.984 249.939 202.976C249.691 202.96 249.435 202.952 249.171 202.952C248.907 202.952 248.635 202.96 248.355 202.976C248.075 202.984 247.867 202.992 247.731 203V202.748C248.059 202.748 248.291 202.688 248.427 202.568C248.571 202.448 248.643 202.22 248.643 201.884V198.128C248.643 197.768 248.579 197.504 248.451 197.336C248.323 197.16 248.083 197.072 247.731 197.072V196.82C247.987 196.844 248.235 196.856 248.475 196.856C248.707 196.856 248.927 196.844 249.135 196.82C249.351 196.788 249.547 196.744 249.723 196.688V198.104C249.931 197.56 250.219 197.184 250.587 196.976C250.963 196.76 251.355 196.652 251.763 196.652Z" fill="#FF5A5F"/>
</svg>