<svg xmlns="http://www.w3.org/2000/svg" xmlns:xlink="http://www.w3.org/1999/xlink" id="visual" viewBox="0 0 1920 1080" width="1920" height="1080" version="1.1">
  <!-- Define the filter -->
  <defs>
    <filter id="top-shadow" x="-50%" y="-50%" width="200%" height="200%">
      <feDropShadow dx="0" dy="-10" stdDeviation="5" flood-color="black" flood-opacity="0.02" />
    </filter>
  </defs>

  <path d="M0 933L22.8 943C45.7 953 91.3 973 137 976.8C182.7 980.7 228.3 968.3 274 961.3C319.7 954.3 365.3 952.7 411.2 952.7C457 952.7 503 954.3 548.8 953C594.7 951.7 640.3 947.3 686 944.3C731.7 941.3 777.3 939.7 823 948.2C868.7 956.7 914.3 975.3 960 986C1005.7 996.7 1051.3 999.3 1097 1001.5C1142.7 1003.7 1188.3 1005.3 1234 1002.3C1279.7 999.3 1325.3 991.7 1371.2 984.3C1417 977 1463 970 1508.8 974C1554.7 978 1600.3 993 1646 989.7C1691.7 986.3 1737.3 964.7 1783 963.2C1828.7 961.7 1874.3 980.3 1897.2 989.7L1920 999L1920 1081L1897.2 1081C1874.3 1081 1828.7 1081 1783 1081C1737.3 1081 1691.7 1081 1646 1081C1600.3 1081 1554.7 1081 1508.8 1081C1463 1081 1417 1081 1371.2 1081C1325.3 1081 1279.7 1081 1234 1081C1188.3 1081 1142.7 1081 1097 1081C1051.3 1081 1005.7 1081 960 1081C914.3 1081 868.7 1081 823 1081C777.3 1081 731.7 1081 686 1081C640.3 1081 594.7 1081 548.8 1081C503 1081 457 1081 411.2 1081C365.3 1081 319.7 1081 274 1081C228.3 1081 182.7 1081 137 1081C91.3 1081 45.7 1081 22.8 1081L0 1081Z" fill="#F8FAFC" stroke-linecap="round" stroke-linejoin="miter" filter="url(#top-shadow)"/>
</svg>
