<svg xmlns="http://www.w3.org/2000/svg" width="68" height="60" viewBox="0 0 68 60" fill="none">
<mask id="path-1-inside-1_59_3" fill="white">
<path d="M22 18C22 17.4477 22.4477 17 23 17H45C45.5523 17 46 17.4477 46 18V37C46 37.5523 45.5523 38 45 38H23C22.4477 38 22 37.5523 22 37V18Z"/>
</mask>
<path d="M22 17H46H22ZM48 37C48 38.6569 46.6569 40 45 40H23C21.3431 40 20 38.6569 20 37L24 36H44L48 37ZM23 40C21.3431 40 20 38.6569 20 37V20C20 18.3431 21.3431 17 23 17H24C24 17 24 17.4477 24 18V36L23 40ZM45 17C46.6569 17 48 18.3431 48 20V37C48 38.6569 46.6569 40 45 40L44 36V18C44 17.4477 44 17 44 17H45Z" fill="#F27984" mask="url(#path-1-inside-1_59_3)"/>
<rect x="29" y="20" width="4" height="4" rx="1" fill="#F27984"/>
<rect x="35" y="20" width="4" height="4" rx="1" fill="#F27984"/>
<rect x="35" y="26" width="4" height="4" rx="1" fill="#F27984"/>
<rect x="29" y="26" width="4" height="4" rx="1" fill="#F27984"/>
<path d="M34.5 7.5L18.4084 21.128" stroke="#F27984" stroke-width="2" stroke-linecap="round"/>
<path d="M51.0058 21.0049C51.4274 21.3617 51.4799 21.9926 51.1232 22.4142C50.7664 22.8358 50.1354 22.8883 49.7138 22.5316L51.0058 21.0049ZM34.146 6.73666L51.0058 21.0049L49.7138 22.5316L32.854 8.26334L34.146 6.73666Z" fill="#F27984"/>
<path fill-rule="evenodd" clip-rule="evenodd" d="M34 8.13271C27.4772 0.531013 16.2024 -1.81221 8.02971 5.14866C-0.143037 12.1095 -1.29365 23.7477 5.12445 31.9804C10.4607 38.8251 26.6099 53.2617 31.9028 57.9343C32.4947 58.457 32.7909 58.7184 33.1363 58.821C33.4376 58.9105 33.7675 58.9105 34.0691 58.821C34.4145 58.7184 34.7103 58.457 35.3026 57.9343C40.5955 53.2617 56.7445 38.8251 62.0809 31.9804C68.4989 23.7477 67.4887 12.0363 59.1755 5.14866C50.8622 -1.73899 40.5228 0.531013 34 8.13271Z" stroke="#F27984" stroke-width="2" stroke-linecap="round" stroke-linejoin="round"/>
</svg>