<svg xmlns="http://www.w3.org/2000/svg" xmlns:xlink="http://www.w3.org/1999/xlink" id="visual" viewBox="0 0 1920 1080" width="1920" height="1080" version="1.1"><path d="M0 933L80 925.8C160 918.7 320 904.3 480 898.7C640 893 800 896 960 904.5C1120 913 1280 927 1440 937.3C1600 947.7 1760 954.3 1840 957.7L1920 961L1920 1081L1840 1081C1760 1081 1600 1081 1440 1081C1280 1081 1120 1081 960 1081C800 1081 640 1081 480 1081C320 1081 160 1081 80 1081L0 1081Z" fill="#FCA806" stroke-linecap="round" stroke-linejoin="miter"/></svg>